%
M48
M72
T01C0.0276
T02C0.0394
T03C0.0400
T04C0.0748
T05C0.1250
%
T01
X9393Y12988
X9393Y13776
T02
X6036Y20804
X5051Y20804
X4067Y20804
X4067Y26513
X6036Y26513
X38817Y26513
X40786Y26513
X40786Y20804
X39801Y20804
X38817Y20804
T03
X14926Y4632
X15926Y4632
X16926Y4632
X17926Y4632
X18926Y4632
X19926Y4632
X9051Y16007
X9051Y17007
X9051Y18007
T04
X7650Y23757
X2453Y23757
X37203Y23757
X42400Y23757
T05
X22426Y20507
X22426Y4882
M30
