G75*
%MOIN*%
%OFA0B0*%
%FSLAX25Y25*%
%IPPOS*%
%LPD*%
%AMOC8*
5,1,8,0,0,1.08239X$1,22.5*
%
%ADD10C,0.13000*%
%ADD11C,0.06406*%
%ADD12R,0.11720X0.11720*%
%ADD13C,0.07900*%
%ADD14C,0.06900*%
%ADD15R,0.07900X0.07900*%
%ADD16C,0.02500*%
D10*
X0249300Y0048820D03*
X0249300Y0205070D03*
D11*
X0085393Y0208042D03*
X0075550Y0208042D03*
X0065707Y0208042D03*
X0065707Y0265129D03*
X0085393Y0265129D03*
X0413207Y0265129D03*
X0432893Y0265129D03*
X0432893Y0208042D03*
X0423050Y0208042D03*
X0413207Y0208042D03*
D12*
X0397066Y0237570D03*
X0449034Y0237570D03*
X0101534Y0237570D03*
X0049566Y0237570D03*
D13*
X0109650Y0180270D03*
X0109650Y0170270D03*
X0109650Y0160270D03*
X0184300Y0046320D03*
X0194300Y0046320D03*
X0204300Y0046320D03*
X0214300Y0046320D03*
X0224300Y0046320D03*
D14*
X0111965Y0129883D03*
X0111965Y0137757D03*
D15*
X0174300Y0046320D03*
D16*
X0140300Y0123320D03*
X0134737Y0129883D03*
X0165300Y0138320D03*
X0190300Y0148320D03*
X0197300Y0157320D03*
X0206300Y0167320D03*
X0209300Y0172320D03*
X0212633Y0163320D03*
X0220300Y0162320D03*
X0237300Y0167320D03*
X0245300Y0170320D03*
X0244300Y0162320D03*
X0258300Y0163320D03*
X0254300Y0172320D03*
X0281300Y0179320D03*
X0279300Y0187320D03*
X0257300Y0200320D03*
X0219300Y0187320D03*
X0193300Y0197320D03*
X0167300Y0204320D03*
X0152300Y0204320D03*
X0144800Y0197320D03*
X0127676Y0192320D03*
X0152300Y0167320D03*
X0210300Y0121320D03*
X0203300Y0106320D03*
X0191300Y0095320D03*
X0180300Y0087320D03*
X0176300Y0102320D03*
X0175300Y0069320D03*
X0169300Y0069320D03*
X0187300Y0063320D03*
X0204300Y0069320D03*
X0226300Y0090320D03*
X0229300Y0095320D03*
X0249300Y0081320D03*
X0243300Y0060320D03*
X0304300Y0051320D03*
X0330300Y0074320D03*
X0342300Y0082320D03*
X0359300Y0119320D03*
X0373300Y0122320D03*
X0352300Y0136320D03*
X0331300Y0151320D03*
X0318300Y0150320D03*
X0305300Y0150320D03*
X0305300Y0163320D03*
X0328300Y0189320D03*
X0333300Y0205320D03*
X0351300Y0201320D03*
X0333300Y0234320D03*
X0350300Y0240320D03*
X0340300Y0248320D03*
X0331300Y0258320D03*
X0327300Y0267320D03*
X0312300Y0256320D03*
X0310300Y0247320D03*
X0314300Y0245320D03*
X0312300Y0241320D03*
X0291300Y0243474D03*
X0270300Y0244320D03*
X0304300Y0199320D03*
X0252300Y0127320D03*
X0199300Y0232320D03*
X0180300Y0236320D03*
X0180300Y0249320D03*
X0166300Y0267320D03*
X0168300Y0270320D03*
X0155300Y0276320D03*
X0155300Y0281920D03*
X0147300Y0278320D03*
X0164200Y0287620D03*
X0131300Y0292320D03*
X0128300Y0293320D03*
X0154741Y0240320D03*
X0160241Y0235320D03*
X0124300Y0235320D03*
X0338300Y0282320D03*
X0348300Y0275320D03*
X0349300Y0293320D03*
X0358300Y0305320D03*
X0365300Y0288320D03*
M02*
