G75*
%MOIN*%
%OFA0B0*%
%FSLAX25Y25*%
%IPPOS*%
%LPD*%
%AMOC8*
5,1,8,0,0,1.08239X$1,22.5*
%
%ADD10C,0.13000*%
%ADD11R,0.02862X0.01878*%
%ADD12R,0.02862X0.02469*%
%ADD13R,0.04400X0.01700*%
%ADD14C,0.06406*%
%ADD15R,0.11720X0.11720*%
%ADD16R,0.08374X0.04831*%
%ADD17C,0.07900*%
%ADD18C,0.06900*%
%ADD19R,0.03256X0.04437*%
%ADD20R,0.05300X0.09300*%
%ADD21R,0.14673X0.09161*%
%ADD22R,0.07900X0.07900*%
%ADD23R,0.03059X0.01484*%
%ADD24R,0.04831X0.04437*%
D10*
X0224263Y0048820D03*
X0224263Y0205070D03*
D11*
X0293997Y0270759D03*
X0299902Y0270759D03*
X0299902Y0277255D03*
X0293997Y0277255D03*
X0307747Y0279755D03*
X0313652Y0279755D03*
X0311497Y0284509D03*
X0317402Y0284509D03*
X0322747Y0286005D03*
X0328652Y0286005D03*
X0328652Y0279509D03*
X0322747Y0279509D03*
X0313652Y0273259D03*
X0307747Y0273259D03*
X0311497Y0291005D03*
X0317402Y0291005D03*
X0328997Y0290759D03*
X0334902Y0290759D03*
X0334902Y0297255D03*
X0328997Y0297255D03*
X0152402Y0277255D03*
X0146497Y0277255D03*
X0146497Y0270759D03*
X0152402Y0270759D03*
X0139902Y0273259D03*
X0133997Y0273259D03*
X0133997Y0279755D03*
X0136152Y0284509D03*
X0130247Y0284509D03*
X0123652Y0287255D03*
X0117747Y0287255D03*
X0118652Y0292009D03*
X0112747Y0292009D03*
X0112747Y0298505D03*
X0118652Y0298505D03*
X0130247Y0291005D03*
X0136152Y0291005D03*
X0139902Y0279755D03*
X0123652Y0280759D03*
X0117747Y0280759D03*
D12*
X0117747Y0284007D03*
X0123652Y0284007D03*
X0130247Y0287757D03*
X0136152Y0287757D03*
X0133997Y0276507D03*
X0139902Y0276507D03*
X0146497Y0274007D03*
X0152402Y0274007D03*
X0118652Y0295257D03*
X0112747Y0295257D03*
X0293997Y0274007D03*
X0299902Y0274007D03*
X0307747Y0276507D03*
X0313652Y0276507D03*
X0322747Y0282757D03*
X0328652Y0282757D03*
X0317402Y0287757D03*
X0311497Y0287757D03*
X0328997Y0294007D03*
X0334902Y0294007D03*
D13*
X0194500Y0097836D03*
X0194500Y0095277D03*
X0194500Y0092718D03*
X0194500Y0090159D03*
X0194500Y0087600D03*
X0194500Y0085040D03*
X0194500Y0082481D03*
X0194500Y0079922D03*
X0194500Y0077363D03*
X0194500Y0074804D03*
X0171525Y0074804D03*
X0171525Y0077363D03*
X0171525Y0079922D03*
X0171525Y0082481D03*
X0171525Y0085040D03*
X0171525Y0087600D03*
X0171525Y0090159D03*
X0171525Y0092718D03*
X0171525Y0095277D03*
X0171525Y0097836D03*
D14*
X0060355Y0208042D03*
X0050513Y0208042D03*
X0040670Y0208042D03*
X0040670Y0265129D03*
X0060355Y0265129D03*
X0388170Y0265129D03*
X0407855Y0265129D03*
X0407855Y0208042D03*
X0398013Y0208042D03*
X0388170Y0208042D03*
D15*
X0372028Y0237570D03*
X0423997Y0237570D03*
X0076497Y0237570D03*
X0024528Y0237570D03*
D16*
X0096389Y0102127D03*
X0096389Y0108820D03*
X0096389Y0115513D03*
X0112137Y0115513D03*
X0118889Y0122127D03*
X0118889Y0128820D03*
X0118889Y0135513D03*
X0134637Y0135513D03*
X0134637Y0128820D03*
X0134637Y0122127D03*
X0145139Y0132127D03*
X0145139Y0138820D03*
X0145139Y0145513D03*
X0160887Y0145513D03*
X0160887Y0138820D03*
X0160887Y0132127D03*
X0171389Y0147127D03*
X0171389Y0153820D03*
X0171389Y0160513D03*
X0187137Y0160513D03*
X0187137Y0153820D03*
X0187137Y0147127D03*
X0200139Y0152127D03*
X0200139Y0158820D03*
X0200139Y0165513D03*
X0215887Y0165513D03*
X0215887Y0158820D03*
X0215887Y0152127D03*
X0228889Y0152127D03*
X0228889Y0158820D03*
X0228889Y0165513D03*
X0231389Y0179627D03*
X0231389Y0186320D03*
X0231389Y0193013D03*
X0217137Y0193013D03*
X0217137Y0186320D03*
X0217137Y0179627D03*
X0201389Y0179627D03*
X0201389Y0186320D03*
X0201389Y0193013D03*
X0189637Y0193377D03*
X0189637Y0200070D03*
X0189637Y0206763D03*
X0173889Y0206763D03*
X0173889Y0200070D03*
X0173889Y0193377D03*
X0163387Y0208377D03*
X0163387Y0215070D03*
X0163387Y0221763D03*
X0147639Y0221763D03*
X0147639Y0215070D03*
X0147639Y0208377D03*
X0138387Y0219627D03*
X0138387Y0226320D03*
X0138387Y0233013D03*
X0122639Y0233013D03*
X0122639Y0226320D03*
X0122639Y0219627D03*
X0113387Y0220070D03*
X0113387Y0213377D03*
X0097639Y0213377D03*
X0097639Y0220070D03*
X0097639Y0226763D03*
X0113387Y0226763D03*
X0247137Y0193013D03*
X0247137Y0186320D03*
X0247137Y0179627D03*
X0258889Y0190877D03*
X0258889Y0197570D03*
X0258889Y0204263D03*
X0274637Y0204263D03*
X0274637Y0197570D03*
X0274637Y0190877D03*
X0284439Y0204877D03*
X0284439Y0211570D03*
X0284439Y0218263D03*
X0300187Y0218263D03*
X0300187Y0211570D03*
X0300187Y0204877D03*
X0310589Y0213977D03*
X0310589Y0220670D03*
X0310589Y0227363D03*
X0326337Y0227363D03*
X0326337Y0220670D03*
X0326337Y0213977D03*
X0335939Y0217070D03*
X0335939Y0210377D03*
X0335939Y0223763D03*
X0351687Y0223763D03*
X0351687Y0217070D03*
X0351687Y0210377D03*
X0299637Y0153013D03*
X0299637Y0146320D03*
X0299637Y0139627D03*
X0310139Y0131763D03*
X0310139Y0125070D03*
X0310139Y0118377D03*
X0325887Y0118377D03*
X0325887Y0125070D03*
X0325887Y0131763D03*
X0336389Y0111763D03*
X0336389Y0105070D03*
X0336389Y0098377D03*
X0352137Y0098377D03*
X0352137Y0105070D03*
X0352137Y0111763D03*
X0283889Y0139627D03*
X0283889Y0146320D03*
X0283889Y0153013D03*
X0272137Y0155070D03*
X0272137Y0148377D03*
X0256389Y0148377D03*
X0256389Y0155070D03*
X0256389Y0161763D03*
X0244637Y0158820D03*
X0244637Y0152127D03*
X0244637Y0165513D03*
X0272137Y0161763D03*
X0112137Y0108820D03*
X0112137Y0102127D03*
D17*
X0159263Y0046320D03*
X0169263Y0046320D03*
X0179263Y0046320D03*
X0189263Y0046320D03*
X0199263Y0046320D03*
X0090513Y0160070D03*
X0090513Y0170070D03*
X0090513Y0180070D03*
D18*
X0093928Y0137757D03*
X0093928Y0129883D03*
D19*
X0159204Y0236320D03*
X0164322Y0236320D03*
X0184204Y0236320D03*
X0189322Y0236320D03*
X0189322Y0248820D03*
X0184204Y0248820D03*
X0151822Y0261320D03*
X0146704Y0261320D03*
X0139322Y0261320D03*
X0134204Y0261320D03*
X0126822Y0261320D03*
X0121704Y0261320D03*
X0246704Y0111320D03*
X0251822Y0111320D03*
X0271704Y0113820D03*
X0276822Y0113820D03*
X0260572Y0073820D03*
X0255454Y0073820D03*
X0255454Y0063820D03*
X0260572Y0063820D03*
X0260572Y0052570D03*
X0255454Y0052570D03*
X0255454Y0042570D03*
X0260572Y0042570D03*
X0272954Y0057570D03*
X0278072Y0057570D03*
D20*
X0277663Y0074120D03*
X0286763Y0074120D03*
X0295863Y0074120D03*
D21*
X0286763Y0098521D03*
D22*
X0149263Y0046320D03*
D23*
X0312304Y0189617D03*
X0312304Y0191586D03*
X0312304Y0193554D03*
X0312304Y0195523D03*
X0323721Y0195523D03*
X0323721Y0193554D03*
X0323721Y0191586D03*
X0323721Y0189617D03*
D24*
X0177609Y0248820D03*
X0170916Y0248820D03*
X0170916Y0261320D03*
X0177609Y0261320D03*
X0165109Y0261320D03*
X0158416Y0261320D03*
X0152609Y0248820D03*
X0145916Y0248820D03*
X0140109Y0248820D03*
X0133416Y0248820D03*
X0127609Y0248820D03*
X0120916Y0248820D03*
M02*
