G75*
%MOIN*%
%OFA0B0*%
%FSLAX25Y25*%
%IPPOS*%
%LPD*%
%AMOC8*
5,1,8,0,0,1.08239X$1,22.5*
%
%ADD10C,0.00500*%
%ADD11C,0.00600*%
%ADD12C,0.00000*%
D10*
X0119263Y0061853D02*
X0119263Y0084715D01*
X0118566Y0084542D01*
X0117865Y0084386D01*
X0117161Y0084247D01*
X0116453Y0084126D01*
X0115743Y0084021D01*
X0115030Y0083933D01*
X0114316Y0083863D01*
X0113600Y0083810D01*
X0112883Y0083774D01*
X0112165Y0083756D01*
X0111447Y0083755D01*
X0110729Y0083771D01*
X0110012Y0083805D01*
X0109296Y0083856D01*
X0108581Y0083924D01*
X0107868Y0084009D01*
X0107157Y0084112D01*
X0106449Y0084232D01*
X0105744Y0084369D01*
X0105043Y0084523D01*
X0104346Y0084694D01*
X0103653Y0084881D01*
X0102964Y0085086D01*
X0102281Y0085307D01*
X0101604Y0085544D01*
X0100932Y0085798D01*
X0100266Y0086067D01*
X0099608Y0086353D01*
X0098956Y0086655D01*
X0098312Y0086972D01*
X0097676Y0087305D01*
X0097048Y0087653D01*
X0096428Y0088016D01*
X0095818Y0088394D01*
X0095217Y0088787D01*
X0094625Y0089194D01*
X0094044Y0089615D01*
X0093473Y0090050D01*
X0092912Y0090499D01*
X0092363Y0090961D01*
X0091825Y0091436D01*
X0091298Y0091924D01*
X0090784Y0092425D01*
X0090281Y0092938D01*
X0089792Y0093463D01*
X0089315Y0094000D01*
X0088851Y0094548D01*
X0088401Y0095107D01*
X0087964Y0095677D01*
X0087541Y0096258D01*
X0087132Y0096848D01*
X0086738Y0097448D01*
X0086358Y0098057D01*
X0085993Y0098676D01*
X0085643Y0099303D01*
X0085309Y0099938D01*
X0084990Y0100581D01*
X0084686Y0101232D01*
X0084399Y0101890D01*
X0084127Y0102554D01*
X0083871Y0103225D01*
X0083632Y0103902D01*
X0083409Y0104585D01*
X0083203Y0105273D01*
X0083013Y0105965D01*
X0083013Y0223820D01*
X0083050Y0223110D01*
X0083070Y0222399D01*
X0083072Y0221687D01*
X0083057Y0220976D01*
X0083025Y0220266D01*
X0082976Y0219556D01*
X0082910Y0218848D01*
X0082826Y0218141D01*
X0082726Y0217437D01*
X0082608Y0216736D01*
X0082474Y0216037D01*
X0082323Y0215342D01*
X0082155Y0214651D01*
X0081970Y0213964D01*
X0081769Y0213282D01*
X0081552Y0212604D01*
X0081318Y0211933D01*
X0081068Y0211267D01*
X0080802Y0210607D01*
X0080520Y0209954D01*
X0080222Y0209308D01*
X0079909Y0208669D01*
X0079581Y0208038D01*
X0079237Y0207415D01*
X0078878Y0206801D01*
X0078505Y0206196D01*
X0078117Y0205599D01*
X0077715Y0205013D01*
X0077299Y0204436D01*
X0076869Y0203869D01*
X0076425Y0203313D01*
X0075969Y0202768D01*
X0075499Y0202234D01*
X0075016Y0201711D01*
X0074521Y0201201D01*
X0074013Y0200702D01*
X0073494Y0200216D01*
X0072963Y0199743D01*
X0072421Y0199282D01*
X0071868Y0198835D01*
X0071304Y0198401D01*
X0070730Y0197981D01*
X0070146Y0197575D01*
X0069553Y0197183D01*
X0068950Y0196806D01*
X0068338Y0196443D01*
X0067717Y0196095D01*
X0067088Y0195763D01*
X0066452Y0195445D01*
X0065808Y0195144D01*
X0065157Y0194857D01*
X0064499Y0194587D01*
X0063834Y0194332D01*
X0063164Y0194094D01*
X0062488Y0193872D01*
X0061808Y0193666D01*
X0061122Y0193477D01*
X0060432Y0193305D01*
X0059738Y0193149D01*
X0059040Y0193010D01*
X0058339Y0192888D01*
X0057636Y0192783D01*
X0056930Y0192695D01*
X0056222Y0192624D01*
X0055513Y0192570D01*
X0005513Y0242570D02*
X0005632Y0243611D01*
X0005775Y0244648D01*
X0005944Y0245682D01*
X0006137Y0246712D01*
X0006355Y0247736D01*
X0006598Y0248755D01*
X0006865Y0249768D01*
X0007157Y0250774D01*
X0007473Y0251773D01*
X0007813Y0252763D01*
X0008177Y0253745D01*
X0008565Y0254719D01*
X0008976Y0255682D01*
X0009410Y0256635D01*
X0009867Y0257578D01*
X0010347Y0258509D01*
X0010849Y0259428D01*
X0011373Y0260335D01*
X0011919Y0261229D01*
X0012486Y0262110D01*
X0013075Y0262976D01*
X0013684Y0263829D01*
X0014313Y0264666D01*
X0014963Y0265487D01*
X0015632Y0266293D01*
X0016321Y0267082D01*
X0017028Y0267855D01*
X0017754Y0268610D01*
X0018498Y0269347D01*
X0019260Y0270067D01*
X0020039Y0270767D01*
X0020834Y0271449D01*
X0021646Y0272111D01*
X0022473Y0272753D01*
X0023316Y0273375D01*
X0024173Y0273977D01*
X0025045Y0274558D01*
X0025931Y0275117D01*
X0026829Y0275655D01*
X0027741Y0276171D01*
X0028665Y0276665D01*
X0029600Y0277136D01*
X0030547Y0277585D01*
X0031504Y0278011D01*
X0032471Y0278413D01*
X0033447Y0278792D01*
X0034433Y0279147D01*
X0035426Y0279479D01*
X0036428Y0279786D01*
X0037436Y0280069D01*
X0038452Y0280327D01*
X0039473Y0280561D01*
X0040499Y0280770D01*
X0041530Y0280954D01*
X0042565Y0281114D01*
X0043604Y0281248D01*
X0044646Y0281357D01*
X0045690Y0281441D01*
X0046736Y0281499D01*
X0047783Y0281533D01*
X0048830Y0281541D01*
X0049878Y0281523D01*
X0050924Y0281481D01*
X0051970Y0281413D01*
X0053013Y0281320D01*
X0005513Y0242570D02*
X0005528Y0241362D01*
X0005571Y0240154D01*
X0005644Y0238948D01*
X0005746Y0237744D01*
X0005878Y0236543D01*
X0006038Y0235346D01*
X0006227Y0234152D01*
X0006444Y0232964D01*
X0006691Y0231781D01*
X0006966Y0230604D01*
X0007269Y0229435D01*
X0007601Y0228273D01*
X0007960Y0227119D01*
X0008347Y0225975D01*
X0008762Y0224840D01*
X0009204Y0223715D01*
X0009673Y0222602D01*
X0010169Y0221500D01*
X0010692Y0220410D01*
X0011240Y0219334D01*
X0011815Y0218271D01*
X0012415Y0217222D01*
X0013040Y0216188D01*
X0013689Y0215169D01*
X0014364Y0214167D01*
X0015062Y0213181D01*
X0015784Y0212212D01*
X0016529Y0211261D01*
X0017297Y0210328D01*
X0018087Y0209414D01*
X0018900Y0208519D01*
X0019733Y0207644D01*
X0020587Y0206790D01*
X0021462Y0205957D01*
X0022357Y0205144D01*
X0023271Y0204354D01*
X0024204Y0203586D01*
X0025155Y0202841D01*
X0026124Y0202119D01*
X0027110Y0201421D01*
X0028112Y0200746D01*
X0029131Y0200097D01*
X0030165Y0199472D01*
X0031214Y0198872D01*
X0032277Y0198297D01*
X0033353Y0197749D01*
X0034443Y0197226D01*
X0035545Y0196730D01*
X0036658Y0196261D01*
X0037783Y0195819D01*
X0038918Y0195404D01*
X0040062Y0195017D01*
X0041216Y0194658D01*
X0042378Y0194326D01*
X0043547Y0194023D01*
X0044724Y0193748D01*
X0045907Y0193501D01*
X0047095Y0193284D01*
X0048289Y0193095D01*
X0049486Y0192935D01*
X0050687Y0192803D01*
X0051891Y0192701D01*
X0053097Y0192628D01*
X0054305Y0192585D01*
X0055513Y0192570D01*
X0101763Y0270070D02*
X0099263Y0323820D01*
X0131763Y0323820D01*
X0215254Y0240329D01*
X0233144Y0240455D01*
X0311763Y0321320D01*
X0385513Y0278820D02*
X0399263Y0278820D01*
X0385513Y0278820D02*
X0385030Y0278814D01*
X0384547Y0278797D01*
X0384064Y0278767D01*
X0383583Y0278727D01*
X0383102Y0278674D01*
X0382623Y0278610D01*
X0382146Y0278535D01*
X0381670Y0278447D01*
X0381197Y0278349D01*
X0380727Y0278239D01*
X0380259Y0278118D01*
X0379794Y0277985D01*
X0379333Y0277841D01*
X0378875Y0277686D01*
X0378421Y0277520D01*
X0377971Y0277343D01*
X0377526Y0277156D01*
X0377085Y0276957D01*
X0376649Y0276749D01*
X0376219Y0276529D01*
X0375793Y0276299D01*
X0375374Y0276059D01*
X0374960Y0275809D01*
X0374553Y0275549D01*
X0374152Y0275280D01*
X0373757Y0275000D01*
X0373370Y0274712D01*
X0372989Y0274413D01*
X0372616Y0274106D01*
X0372251Y0273790D01*
X0371893Y0273465D01*
X0371543Y0273132D01*
X0371201Y0272790D01*
X0370868Y0272440D01*
X0370543Y0272082D01*
X0370227Y0271717D01*
X0369920Y0271344D01*
X0369621Y0270963D01*
X0369333Y0270576D01*
X0369053Y0270181D01*
X0368784Y0269780D01*
X0368524Y0269373D01*
X0368274Y0268959D01*
X0368034Y0268540D01*
X0367804Y0268114D01*
X0367584Y0267684D01*
X0367376Y0267248D01*
X0367177Y0266807D01*
X0366990Y0266362D01*
X0366813Y0265912D01*
X0366647Y0265458D01*
X0366492Y0265000D01*
X0366348Y0264539D01*
X0366215Y0264074D01*
X0366094Y0263606D01*
X0365984Y0263136D01*
X0365886Y0262663D01*
X0365798Y0262187D01*
X0365723Y0261710D01*
X0365659Y0261231D01*
X0365606Y0260750D01*
X0365566Y0260269D01*
X0365536Y0259786D01*
X0365519Y0259303D01*
X0365513Y0258820D01*
X0365513Y0257570D01*
X0399263Y0191320D02*
X0400319Y0191424D01*
X0401372Y0191553D01*
X0402422Y0191707D01*
X0403468Y0191887D01*
X0404509Y0192091D01*
X0405545Y0192321D01*
X0406575Y0192576D01*
X0407599Y0192856D01*
X0408615Y0193160D01*
X0409624Y0193489D01*
X0410625Y0193842D01*
X0411616Y0194219D01*
X0412599Y0194620D01*
X0413571Y0195045D01*
X0414533Y0195493D01*
X0415484Y0195964D01*
X0416423Y0196458D01*
X0417350Y0196975D01*
X0418264Y0197514D01*
X0419165Y0198074D01*
X0420052Y0198657D01*
X0420925Y0199260D01*
X0421783Y0199885D01*
X0422625Y0200530D01*
X0423452Y0201195D01*
X0424262Y0201880D01*
X0425056Y0202584D01*
X0425832Y0203308D01*
X0426591Y0204050D01*
X0427331Y0204810D01*
X0428053Y0205587D01*
X0428756Y0206382D01*
X0429440Y0207194D01*
X0430103Y0208022D01*
X0430747Y0208866D01*
X0431370Y0209725D01*
X0431972Y0210598D01*
X0432552Y0211487D01*
X0433111Y0212388D01*
X0433648Y0213304D01*
X0434163Y0214231D01*
X0434655Y0215171D01*
X0435125Y0216123D01*
X0435571Y0217086D01*
X0435994Y0218059D01*
X0436393Y0219042D01*
X0436769Y0220035D01*
X0437120Y0221036D01*
X0437447Y0222045D01*
X0437749Y0223062D01*
X0438027Y0224087D01*
X0438280Y0225117D01*
X0438508Y0226153D01*
X0438711Y0227195D01*
X0438889Y0228241D01*
X0439041Y0229291D01*
X0439168Y0230345D01*
X0439269Y0231401D01*
X0439345Y0232459D01*
X0439396Y0233519D01*
X0439420Y0234580D01*
X0439419Y0235641D01*
X0439393Y0236702D01*
X0439340Y0237762D01*
X0439263Y0238820D01*
X0439263Y0251320D01*
X0439102Y0252134D01*
X0438922Y0252943D01*
X0438722Y0253748D01*
X0438502Y0254548D01*
X0438264Y0255343D01*
X0438006Y0256131D01*
X0437729Y0256913D01*
X0437434Y0257688D01*
X0437119Y0258456D01*
X0436787Y0259215D01*
X0436436Y0259967D01*
X0436067Y0260710D01*
X0435680Y0261444D01*
X0435276Y0262168D01*
X0434854Y0262882D01*
X0434415Y0263586D01*
X0433959Y0264279D01*
X0433486Y0264960D01*
X0432998Y0265630D01*
X0432493Y0266289D01*
X0431972Y0266934D01*
X0431436Y0267567D01*
X0430885Y0268187D01*
X0430319Y0268793D01*
X0429738Y0269386D01*
X0429144Y0269964D01*
X0428535Y0270528D01*
X0427913Y0271077D01*
X0427279Y0271611D01*
X0426631Y0272129D01*
X0425971Y0272631D01*
X0425299Y0273117D01*
X0424615Y0273587D01*
X0423921Y0274041D01*
X0423215Y0274477D01*
X0422500Y0274896D01*
X0421774Y0275298D01*
X0421039Y0275682D01*
X0420294Y0276048D01*
X0419542Y0276396D01*
X0418781Y0276726D01*
X0418012Y0277037D01*
X0417236Y0277330D01*
X0416453Y0277604D01*
X0415663Y0277859D01*
X0414868Y0278095D01*
X0414067Y0278311D01*
X0413262Y0278508D01*
X0412451Y0278685D01*
X0411637Y0278843D01*
X0410819Y0278981D01*
X0409998Y0279100D01*
X0409175Y0279198D01*
X0408349Y0279277D01*
X0407522Y0279335D01*
X0406693Y0279374D01*
X0405864Y0279392D01*
X0405034Y0279391D01*
X0404205Y0279369D01*
X0403377Y0279327D01*
X0402550Y0279266D01*
X0401724Y0279184D01*
X0400901Y0279083D01*
X0400080Y0278961D01*
X0399263Y0278820D01*
X0370513Y0207570D02*
X0370655Y0207043D01*
X0370810Y0206520D01*
X0370978Y0206000D01*
X0371158Y0205485D01*
X0371350Y0204974D01*
X0371555Y0204468D01*
X0371772Y0203967D01*
X0372001Y0203472D01*
X0372242Y0202982D01*
X0372494Y0202498D01*
X0372759Y0202021D01*
X0373035Y0201550D01*
X0373322Y0201085D01*
X0373620Y0200628D01*
X0373929Y0200178D01*
X0374249Y0199736D01*
X0374579Y0199302D01*
X0374920Y0198875D01*
X0375271Y0198458D01*
X0375632Y0198048D01*
X0376003Y0197648D01*
X0376384Y0197256D01*
X0376774Y0196874D01*
X0377173Y0196502D01*
X0377580Y0196139D01*
X0377997Y0195786D01*
X0378422Y0195444D01*
X0378855Y0195111D01*
X0379296Y0194790D01*
X0379744Y0194479D01*
X0380200Y0194178D01*
X0380663Y0193890D01*
X0381133Y0193612D01*
X0381610Y0193346D01*
X0382092Y0193091D01*
X0382581Y0192848D01*
X0383076Y0192617D01*
X0383576Y0192398D01*
X0384081Y0192191D01*
X0384591Y0191997D01*
X0385105Y0191814D01*
X0385624Y0191645D01*
X0386147Y0191487D01*
X0386673Y0191343D01*
X0387203Y0191211D01*
X0387736Y0191092D01*
X0388271Y0190986D01*
X0388809Y0190893D01*
X0389349Y0190813D01*
X0389890Y0190747D01*
X0390434Y0190693D01*
X0390978Y0190652D01*
X0391523Y0190625D01*
X0392069Y0190610D01*
X0392615Y0190609D01*
X0393160Y0190621D01*
X0393705Y0190646D01*
X0394250Y0190685D01*
X0394793Y0190736D01*
X0395335Y0190801D01*
X0395876Y0190879D01*
X0396414Y0190970D01*
X0396950Y0191073D01*
X0397483Y0191190D01*
X0398013Y0191320D01*
X0399263Y0191320D01*
X0370513Y0207570D02*
X0370513Y0118820D01*
X0370488Y0118020D01*
X0370444Y0117220D01*
X0370381Y0116422D01*
X0370298Y0115626D01*
X0370196Y0114832D01*
X0370075Y0114040D01*
X0369935Y0113252D01*
X0369776Y0112467D01*
X0369598Y0111687D01*
X0369401Y0110911D01*
X0369185Y0110140D01*
X0368951Y0109374D01*
X0368699Y0108614D01*
X0368428Y0107861D01*
X0368139Y0107114D01*
X0367832Y0106375D01*
X0367507Y0105643D01*
X0367165Y0104919D01*
X0366805Y0104204D01*
X0366428Y0103498D01*
X0366035Y0102801D01*
X0365624Y0102113D01*
X0365197Y0101436D01*
X0364754Y0100769D01*
X0364294Y0100113D01*
X0363819Y0099469D01*
X0363329Y0098836D01*
X0362823Y0098215D01*
X0362303Y0097607D01*
X0361768Y0097011D01*
X0361219Y0096429D01*
X0360656Y0095859D01*
X0360079Y0095304D01*
X0359489Y0094763D01*
X0358886Y0094236D01*
X0358271Y0093724D01*
X0357643Y0093227D01*
X0357004Y0092745D01*
X0356353Y0092279D01*
X0355691Y0091829D01*
X0355018Y0091394D01*
X0354335Y0090977D01*
X0353642Y0090575D01*
X0352940Y0090191D01*
X0352229Y0089824D01*
X0351508Y0089474D01*
X0350780Y0089141D01*
X0350044Y0088827D01*
X0349300Y0088530D01*
X0348550Y0088251D01*
X0347793Y0087990D01*
X0347030Y0087748D01*
X0346261Y0087524D01*
X0345487Y0087319D01*
X0344709Y0087133D01*
X0343926Y0086965D01*
X0343139Y0086817D01*
X0342349Y0086687D01*
X0341556Y0086577D01*
X0340760Y0086486D01*
X0339963Y0086414D01*
X0339164Y0086362D01*
X0338364Y0086328D01*
X0337564Y0086314D01*
X0336763Y0086320D01*
X0336763Y0056389D01*
X0336762Y0056389D02*
X0336756Y0055904D01*
X0336739Y0055419D01*
X0336709Y0054935D01*
X0336668Y0054452D01*
X0336616Y0053970D01*
X0336551Y0053489D01*
X0336476Y0053010D01*
X0336388Y0052533D01*
X0336289Y0052058D01*
X0336179Y0051586D01*
X0336057Y0051117D01*
X0335924Y0050650D01*
X0335780Y0050187D01*
X0335624Y0049728D01*
X0335458Y0049272D01*
X0335280Y0048821D01*
X0335092Y0048374D01*
X0334893Y0047932D01*
X0334683Y0047495D01*
X0334463Y0047062D01*
X0334233Y0046636D01*
X0333992Y0046215D01*
X0333741Y0045800D01*
X0333480Y0045391D01*
X0333209Y0044989D01*
X0332929Y0044593D01*
X0332639Y0044204D01*
X0332340Y0043822D01*
X0332032Y0043448D01*
X0331715Y0043081D01*
X0331389Y0042722D01*
X0331054Y0042371D01*
X0330711Y0042028D01*
X0330360Y0041693D01*
X0330001Y0041367D01*
X0329634Y0041050D01*
X0329260Y0040742D01*
X0328878Y0040443D01*
X0328489Y0040153D01*
X0328093Y0039873D01*
X0327691Y0039602D01*
X0327282Y0039341D01*
X0326867Y0039090D01*
X0326446Y0038849D01*
X0326020Y0038619D01*
X0325587Y0038399D01*
X0325150Y0038189D01*
X0324708Y0037990D01*
X0324261Y0037802D01*
X0323810Y0037624D01*
X0323354Y0037458D01*
X0322895Y0037302D01*
X0322432Y0037158D01*
X0321965Y0037025D01*
X0321496Y0036903D01*
X0321024Y0036793D01*
X0320549Y0036694D01*
X0320072Y0036606D01*
X0319593Y0036531D01*
X0319112Y0036466D01*
X0318630Y0036414D01*
X0318147Y0036373D01*
X0317663Y0036343D01*
X0317178Y0036326D01*
X0316693Y0036320D01*
X0139796Y0036320D01*
X0139232Y0036389D01*
X0138669Y0036471D01*
X0138108Y0036567D01*
X0137550Y0036676D01*
X0136995Y0036800D01*
X0136443Y0036936D01*
X0135895Y0037087D01*
X0135351Y0037251D01*
X0134810Y0037428D01*
X0134274Y0037618D01*
X0133743Y0037821D01*
X0133218Y0038038D01*
X0132697Y0038267D01*
X0132183Y0038509D01*
X0131674Y0038763D01*
X0131172Y0039030D01*
X0130677Y0039309D01*
X0130188Y0039601D01*
X0129707Y0039904D01*
X0129234Y0040218D01*
X0128768Y0040545D01*
X0128311Y0040882D01*
X0127861Y0041231D01*
X0127421Y0041591D01*
X0126990Y0041961D01*
X0126567Y0042342D01*
X0126155Y0042733D01*
X0125752Y0043134D01*
X0125359Y0043545D01*
X0124976Y0043966D01*
X0124603Y0044395D01*
X0124242Y0044834D01*
X0123891Y0045282D01*
X0123551Y0045738D01*
X0123223Y0046202D01*
X0122905Y0046674D01*
X0122600Y0047153D01*
X0122307Y0047640D01*
X0122025Y0048135D01*
X0121756Y0048635D01*
X0121499Y0049143D01*
X0121255Y0049656D01*
X0121023Y0050175D01*
X0120804Y0050700D01*
X0120599Y0051230D01*
X0120406Y0051765D01*
X0120226Y0052305D01*
X0120060Y0052848D01*
X0119907Y0053396D01*
X0119767Y0053947D01*
X0119642Y0054502D01*
X0119529Y0055059D01*
X0119431Y0055619D01*
X0119346Y0056182D01*
X0119275Y0056746D01*
X0119218Y0057311D01*
X0119175Y0057878D01*
X0119146Y0058446D01*
X0119130Y0059015D01*
X0119129Y0059583D01*
X0119142Y0060152D01*
X0119168Y0060720D01*
X0119209Y0061287D01*
X0119263Y0061853D01*
D11*
X0085513Y0255070D02*
X0101763Y0270070D01*
X0056763Y0281320D02*
X0053013Y0281320D01*
X0056763Y0281320D02*
X0057428Y0281342D01*
X0058093Y0281348D01*
X0058758Y0281338D01*
X0059423Y0281312D01*
X0060087Y0281270D01*
X0060750Y0281212D01*
X0061411Y0281138D01*
X0062070Y0281047D01*
X0062726Y0280941D01*
X0063380Y0280820D01*
X0064031Y0280682D01*
X0064679Y0280529D01*
X0065322Y0280360D01*
X0065961Y0280176D01*
X0066596Y0279976D01*
X0067225Y0279761D01*
X0067849Y0279531D01*
X0068468Y0279285D01*
X0069080Y0279025D01*
X0069686Y0278751D01*
X0070285Y0278461D01*
X0070877Y0278158D01*
X0071461Y0277840D01*
X0072038Y0277508D01*
X0072606Y0277162D01*
X0073166Y0276802D01*
X0073717Y0276430D01*
X0074258Y0276043D01*
X0074791Y0275644D01*
X0075313Y0275233D01*
X0075825Y0274808D01*
X0076327Y0274372D01*
X0076819Y0273923D01*
X0077299Y0273463D01*
X0077768Y0272991D01*
X0078225Y0272508D01*
X0078671Y0272014D01*
X0079105Y0271510D01*
X0079526Y0270995D01*
X0079935Y0270470D01*
X0080331Y0269936D01*
X0080713Y0269392D01*
X0081083Y0268839D01*
X0081439Y0268277D01*
X0081782Y0267707D01*
X0082110Y0267128D01*
X0082425Y0266542D01*
X0082725Y0265948D01*
X0083011Y0265348D01*
X0083282Y0264740D01*
X0083539Y0264126D01*
X0083780Y0263507D01*
X0084007Y0262881D01*
X0084218Y0262250D01*
X0084414Y0261615D01*
X0084595Y0260975D01*
X0084760Y0260330D01*
X0084910Y0259682D01*
X0085043Y0259030D01*
X0085161Y0258376D01*
X0085264Y0257718D01*
X0085350Y0257059D01*
X0085420Y0256397D01*
X0085474Y0255734D01*
X0085513Y0255070D01*
X0311763Y0321320D02*
X0314263Y0323820D01*
X0353013Y0323820D01*
X0353013Y0273820D01*
X0365513Y0257570D01*
D12*
X0218013Y0205070D02*
X0218015Y0205228D01*
X0218021Y0205385D01*
X0218031Y0205543D01*
X0218045Y0205700D01*
X0218063Y0205856D01*
X0218084Y0206013D01*
X0218110Y0206168D01*
X0218140Y0206323D01*
X0218173Y0206477D01*
X0218211Y0206630D01*
X0218252Y0206783D01*
X0218297Y0206934D01*
X0218346Y0207084D01*
X0218399Y0207232D01*
X0218455Y0207380D01*
X0218516Y0207525D01*
X0218579Y0207670D01*
X0218647Y0207812D01*
X0218718Y0207953D01*
X0218792Y0208092D01*
X0218870Y0208229D01*
X0218952Y0208364D01*
X0219036Y0208497D01*
X0219125Y0208628D01*
X0219216Y0208756D01*
X0219311Y0208883D01*
X0219408Y0209006D01*
X0219509Y0209128D01*
X0219613Y0209246D01*
X0219720Y0209362D01*
X0219830Y0209475D01*
X0219942Y0209586D01*
X0220058Y0209693D01*
X0220176Y0209798D01*
X0220296Y0209900D01*
X0220419Y0209998D01*
X0220545Y0210094D01*
X0220673Y0210186D01*
X0220803Y0210275D01*
X0220935Y0210361D01*
X0221070Y0210443D01*
X0221207Y0210522D01*
X0221345Y0210597D01*
X0221485Y0210669D01*
X0221628Y0210737D01*
X0221771Y0210802D01*
X0221917Y0210863D01*
X0222064Y0210920D01*
X0222212Y0210974D01*
X0222362Y0211024D01*
X0222512Y0211070D01*
X0222664Y0211112D01*
X0222817Y0211151D01*
X0222971Y0211185D01*
X0223126Y0211216D01*
X0223281Y0211242D01*
X0223437Y0211265D01*
X0223594Y0211284D01*
X0223751Y0211299D01*
X0223908Y0211310D01*
X0224066Y0211317D01*
X0224224Y0211320D01*
X0224381Y0211319D01*
X0224539Y0211314D01*
X0224696Y0211305D01*
X0224854Y0211292D01*
X0225010Y0211275D01*
X0225167Y0211254D01*
X0225322Y0211230D01*
X0225477Y0211201D01*
X0225632Y0211168D01*
X0225785Y0211132D01*
X0225938Y0211091D01*
X0226089Y0211047D01*
X0226239Y0210999D01*
X0226388Y0210948D01*
X0226536Y0210892D01*
X0226682Y0210833D01*
X0226827Y0210770D01*
X0226970Y0210703D01*
X0227111Y0210633D01*
X0227250Y0210560D01*
X0227388Y0210483D01*
X0227524Y0210402D01*
X0227657Y0210318D01*
X0227788Y0210231D01*
X0227917Y0210140D01*
X0228044Y0210046D01*
X0228169Y0209949D01*
X0228290Y0209849D01*
X0228410Y0209746D01*
X0228526Y0209640D01*
X0228640Y0209531D01*
X0228752Y0209419D01*
X0228860Y0209305D01*
X0228965Y0209187D01*
X0229068Y0209067D01*
X0229167Y0208945D01*
X0229263Y0208820D01*
X0229356Y0208692D01*
X0229446Y0208563D01*
X0229532Y0208431D01*
X0229616Y0208297D01*
X0229695Y0208161D01*
X0229772Y0208023D01*
X0229844Y0207883D01*
X0229913Y0207741D01*
X0229979Y0207598D01*
X0230041Y0207453D01*
X0230099Y0207306D01*
X0230154Y0207158D01*
X0230205Y0207009D01*
X0230252Y0206858D01*
X0230295Y0206707D01*
X0230334Y0206554D01*
X0230370Y0206400D01*
X0230401Y0206246D01*
X0230429Y0206091D01*
X0230453Y0205935D01*
X0230473Y0205778D01*
X0230489Y0205621D01*
X0230501Y0205464D01*
X0230509Y0205307D01*
X0230513Y0205149D01*
X0230513Y0204991D01*
X0230509Y0204833D01*
X0230501Y0204676D01*
X0230489Y0204519D01*
X0230473Y0204362D01*
X0230453Y0204205D01*
X0230429Y0204049D01*
X0230401Y0203894D01*
X0230370Y0203740D01*
X0230334Y0203586D01*
X0230295Y0203433D01*
X0230252Y0203282D01*
X0230205Y0203131D01*
X0230154Y0202982D01*
X0230099Y0202834D01*
X0230041Y0202687D01*
X0229979Y0202542D01*
X0229913Y0202399D01*
X0229844Y0202257D01*
X0229772Y0202117D01*
X0229695Y0201979D01*
X0229616Y0201843D01*
X0229532Y0201709D01*
X0229446Y0201577D01*
X0229356Y0201448D01*
X0229263Y0201320D01*
X0229167Y0201195D01*
X0229068Y0201073D01*
X0228965Y0200953D01*
X0228860Y0200835D01*
X0228752Y0200721D01*
X0228640Y0200609D01*
X0228526Y0200500D01*
X0228410Y0200394D01*
X0228290Y0200291D01*
X0228169Y0200191D01*
X0228044Y0200094D01*
X0227917Y0200000D01*
X0227788Y0199909D01*
X0227657Y0199822D01*
X0227524Y0199738D01*
X0227388Y0199657D01*
X0227250Y0199580D01*
X0227111Y0199507D01*
X0226970Y0199437D01*
X0226827Y0199370D01*
X0226682Y0199307D01*
X0226536Y0199248D01*
X0226388Y0199192D01*
X0226239Y0199141D01*
X0226089Y0199093D01*
X0225938Y0199049D01*
X0225785Y0199008D01*
X0225632Y0198972D01*
X0225477Y0198939D01*
X0225322Y0198910D01*
X0225167Y0198886D01*
X0225010Y0198865D01*
X0224854Y0198848D01*
X0224696Y0198835D01*
X0224539Y0198826D01*
X0224381Y0198821D01*
X0224224Y0198820D01*
X0224066Y0198823D01*
X0223908Y0198830D01*
X0223751Y0198841D01*
X0223594Y0198856D01*
X0223437Y0198875D01*
X0223281Y0198898D01*
X0223126Y0198924D01*
X0222971Y0198955D01*
X0222817Y0198989D01*
X0222664Y0199028D01*
X0222512Y0199070D01*
X0222362Y0199116D01*
X0222212Y0199166D01*
X0222064Y0199220D01*
X0221917Y0199277D01*
X0221771Y0199338D01*
X0221628Y0199403D01*
X0221485Y0199471D01*
X0221345Y0199543D01*
X0221207Y0199618D01*
X0221070Y0199697D01*
X0220935Y0199779D01*
X0220803Y0199865D01*
X0220673Y0199954D01*
X0220545Y0200046D01*
X0220419Y0200142D01*
X0220296Y0200240D01*
X0220176Y0200342D01*
X0220058Y0200447D01*
X0219942Y0200554D01*
X0219830Y0200665D01*
X0219720Y0200778D01*
X0219613Y0200894D01*
X0219509Y0201012D01*
X0219408Y0201134D01*
X0219311Y0201257D01*
X0219216Y0201384D01*
X0219125Y0201512D01*
X0219036Y0201643D01*
X0218952Y0201776D01*
X0218870Y0201911D01*
X0218792Y0202048D01*
X0218718Y0202187D01*
X0218647Y0202328D01*
X0218579Y0202470D01*
X0218516Y0202615D01*
X0218455Y0202760D01*
X0218399Y0202908D01*
X0218346Y0203056D01*
X0218297Y0203206D01*
X0218252Y0203357D01*
X0218211Y0203510D01*
X0218173Y0203663D01*
X0218140Y0203817D01*
X0218110Y0203972D01*
X0218084Y0204127D01*
X0218063Y0204284D01*
X0218045Y0204440D01*
X0218031Y0204597D01*
X0218021Y0204755D01*
X0218015Y0204912D01*
X0218013Y0205070D01*
X0218013Y0048820D02*
X0218015Y0048978D01*
X0218021Y0049135D01*
X0218031Y0049293D01*
X0218045Y0049450D01*
X0218063Y0049606D01*
X0218084Y0049763D01*
X0218110Y0049918D01*
X0218140Y0050073D01*
X0218173Y0050227D01*
X0218211Y0050380D01*
X0218252Y0050533D01*
X0218297Y0050684D01*
X0218346Y0050834D01*
X0218399Y0050982D01*
X0218455Y0051130D01*
X0218516Y0051275D01*
X0218579Y0051420D01*
X0218647Y0051562D01*
X0218718Y0051703D01*
X0218792Y0051842D01*
X0218870Y0051979D01*
X0218952Y0052114D01*
X0219036Y0052247D01*
X0219125Y0052378D01*
X0219216Y0052506D01*
X0219311Y0052633D01*
X0219408Y0052756D01*
X0219509Y0052878D01*
X0219613Y0052996D01*
X0219720Y0053112D01*
X0219830Y0053225D01*
X0219942Y0053336D01*
X0220058Y0053443D01*
X0220176Y0053548D01*
X0220296Y0053650D01*
X0220419Y0053748D01*
X0220545Y0053844D01*
X0220673Y0053936D01*
X0220803Y0054025D01*
X0220935Y0054111D01*
X0221070Y0054193D01*
X0221207Y0054272D01*
X0221345Y0054347D01*
X0221485Y0054419D01*
X0221628Y0054487D01*
X0221771Y0054552D01*
X0221917Y0054613D01*
X0222064Y0054670D01*
X0222212Y0054724D01*
X0222362Y0054774D01*
X0222512Y0054820D01*
X0222664Y0054862D01*
X0222817Y0054901D01*
X0222971Y0054935D01*
X0223126Y0054966D01*
X0223281Y0054992D01*
X0223437Y0055015D01*
X0223594Y0055034D01*
X0223751Y0055049D01*
X0223908Y0055060D01*
X0224066Y0055067D01*
X0224224Y0055070D01*
X0224381Y0055069D01*
X0224539Y0055064D01*
X0224696Y0055055D01*
X0224854Y0055042D01*
X0225010Y0055025D01*
X0225167Y0055004D01*
X0225322Y0054980D01*
X0225477Y0054951D01*
X0225632Y0054918D01*
X0225785Y0054882D01*
X0225938Y0054841D01*
X0226089Y0054797D01*
X0226239Y0054749D01*
X0226388Y0054698D01*
X0226536Y0054642D01*
X0226682Y0054583D01*
X0226827Y0054520D01*
X0226970Y0054453D01*
X0227111Y0054383D01*
X0227250Y0054310D01*
X0227388Y0054233D01*
X0227524Y0054152D01*
X0227657Y0054068D01*
X0227788Y0053981D01*
X0227917Y0053890D01*
X0228044Y0053796D01*
X0228169Y0053699D01*
X0228290Y0053599D01*
X0228410Y0053496D01*
X0228526Y0053390D01*
X0228640Y0053281D01*
X0228752Y0053169D01*
X0228860Y0053055D01*
X0228965Y0052937D01*
X0229068Y0052817D01*
X0229167Y0052695D01*
X0229263Y0052570D01*
X0229356Y0052442D01*
X0229446Y0052313D01*
X0229532Y0052181D01*
X0229616Y0052047D01*
X0229695Y0051911D01*
X0229772Y0051773D01*
X0229844Y0051633D01*
X0229913Y0051491D01*
X0229979Y0051348D01*
X0230041Y0051203D01*
X0230099Y0051056D01*
X0230154Y0050908D01*
X0230205Y0050759D01*
X0230252Y0050608D01*
X0230295Y0050457D01*
X0230334Y0050304D01*
X0230370Y0050150D01*
X0230401Y0049996D01*
X0230429Y0049841D01*
X0230453Y0049685D01*
X0230473Y0049528D01*
X0230489Y0049371D01*
X0230501Y0049214D01*
X0230509Y0049057D01*
X0230513Y0048899D01*
X0230513Y0048741D01*
X0230509Y0048583D01*
X0230501Y0048426D01*
X0230489Y0048269D01*
X0230473Y0048112D01*
X0230453Y0047955D01*
X0230429Y0047799D01*
X0230401Y0047644D01*
X0230370Y0047490D01*
X0230334Y0047336D01*
X0230295Y0047183D01*
X0230252Y0047032D01*
X0230205Y0046881D01*
X0230154Y0046732D01*
X0230099Y0046584D01*
X0230041Y0046437D01*
X0229979Y0046292D01*
X0229913Y0046149D01*
X0229844Y0046007D01*
X0229772Y0045867D01*
X0229695Y0045729D01*
X0229616Y0045593D01*
X0229532Y0045459D01*
X0229446Y0045327D01*
X0229356Y0045198D01*
X0229263Y0045070D01*
X0229167Y0044945D01*
X0229068Y0044823D01*
X0228965Y0044703D01*
X0228860Y0044585D01*
X0228752Y0044471D01*
X0228640Y0044359D01*
X0228526Y0044250D01*
X0228410Y0044144D01*
X0228290Y0044041D01*
X0228169Y0043941D01*
X0228044Y0043844D01*
X0227917Y0043750D01*
X0227788Y0043659D01*
X0227657Y0043572D01*
X0227524Y0043488D01*
X0227388Y0043407D01*
X0227250Y0043330D01*
X0227111Y0043257D01*
X0226970Y0043187D01*
X0226827Y0043120D01*
X0226682Y0043057D01*
X0226536Y0042998D01*
X0226388Y0042942D01*
X0226239Y0042891D01*
X0226089Y0042843D01*
X0225938Y0042799D01*
X0225785Y0042758D01*
X0225632Y0042722D01*
X0225477Y0042689D01*
X0225322Y0042660D01*
X0225167Y0042636D01*
X0225010Y0042615D01*
X0224854Y0042598D01*
X0224696Y0042585D01*
X0224539Y0042576D01*
X0224381Y0042571D01*
X0224224Y0042570D01*
X0224066Y0042573D01*
X0223908Y0042580D01*
X0223751Y0042591D01*
X0223594Y0042606D01*
X0223437Y0042625D01*
X0223281Y0042648D01*
X0223126Y0042674D01*
X0222971Y0042705D01*
X0222817Y0042739D01*
X0222664Y0042778D01*
X0222512Y0042820D01*
X0222362Y0042866D01*
X0222212Y0042916D01*
X0222064Y0042970D01*
X0221917Y0043027D01*
X0221771Y0043088D01*
X0221628Y0043153D01*
X0221485Y0043221D01*
X0221345Y0043293D01*
X0221207Y0043368D01*
X0221070Y0043447D01*
X0220935Y0043529D01*
X0220803Y0043615D01*
X0220673Y0043704D01*
X0220545Y0043796D01*
X0220419Y0043892D01*
X0220296Y0043990D01*
X0220176Y0044092D01*
X0220058Y0044197D01*
X0219942Y0044304D01*
X0219830Y0044415D01*
X0219720Y0044528D01*
X0219613Y0044644D01*
X0219509Y0044762D01*
X0219408Y0044884D01*
X0219311Y0045007D01*
X0219216Y0045134D01*
X0219125Y0045262D01*
X0219036Y0045393D01*
X0218952Y0045526D01*
X0218870Y0045661D01*
X0218792Y0045798D01*
X0218718Y0045937D01*
X0218647Y0046078D01*
X0218579Y0046220D01*
X0218516Y0046365D01*
X0218455Y0046510D01*
X0218399Y0046658D01*
X0218346Y0046806D01*
X0218297Y0046956D01*
X0218252Y0047107D01*
X0218211Y0047260D01*
X0218173Y0047413D01*
X0218140Y0047567D01*
X0218110Y0047722D01*
X0218084Y0047877D01*
X0218063Y0048034D01*
X0218045Y0048190D01*
X0218031Y0048347D01*
X0218021Y0048505D01*
X0218015Y0048662D01*
X0218013Y0048820D01*
M02*
