G75*
%MOIN*%
%OFA0B0*%
%FSLAX25Y25*%
%IPPOS*%
%LPD*%
%AMOC8*
5,1,8,0,0,1.08239X$1,22.5*
%
%ADD10R,0.02362X0.01378*%
%ADD11R,0.02362X0.01969*%
%ADD12R,0.03900X0.01200*%
%ADD13R,0.07874X0.04331*%
%ADD14R,0.02756X0.03937*%
%ADD15R,0.04800X0.08800*%
%ADD16R,0.14173X0.08661*%
%ADD17R,0.00984X0.02559*%
%ADD18R,0.04331X0.03937*%
D10*
X0171534Y0270759D03*
X0177440Y0270759D03*
X0177440Y0277255D03*
X0171534Y0277255D03*
X0165090Y0279805D03*
X0159184Y0279805D03*
X0161240Y0284459D03*
X0155334Y0284459D03*
X0148690Y0287255D03*
X0143690Y0292009D03*
X0142784Y0287255D03*
X0137784Y0292009D03*
X0137784Y0298505D03*
X0143690Y0298505D03*
X0155334Y0290955D03*
X0161240Y0290955D03*
X0148690Y0280759D03*
X0142784Y0280759D03*
X0159184Y0273309D03*
X0165090Y0273309D03*
X0319034Y0270759D03*
X0324940Y0270759D03*
X0332734Y0273409D03*
X0324940Y0277255D03*
X0319034Y0277255D03*
X0332734Y0279905D03*
X0336584Y0284559D03*
X0338640Y0279905D03*
X0342490Y0284559D03*
X0347784Y0286005D03*
X0347784Y0279509D03*
X0353690Y0279509D03*
X0353690Y0286005D03*
X0354034Y0290759D03*
X0359940Y0290759D03*
X0359940Y0297255D03*
X0354034Y0297255D03*
X0342490Y0291055D03*
X0336584Y0291055D03*
X0338640Y0273409D03*
D11*
X0338640Y0276657D03*
X0347784Y0282757D03*
X0353690Y0282757D03*
X0354034Y0294007D03*
X0359940Y0294007D03*
X0342490Y0287807D03*
X0336584Y0287807D03*
X0332734Y0276657D03*
X0324940Y0274007D03*
X0319034Y0274007D03*
X0177440Y0274007D03*
X0171534Y0274007D03*
X0165090Y0276557D03*
X0159184Y0276557D03*
X0148690Y0284007D03*
X0155334Y0287707D03*
X0161240Y0287707D03*
X0143690Y0295257D03*
X0137784Y0295257D03*
X0142784Y0284007D03*
D12*
X0196563Y0097836D03*
X0196563Y0095277D03*
X0196563Y0092718D03*
X0196563Y0090159D03*
X0196563Y0087600D03*
X0196563Y0085040D03*
X0196563Y0082481D03*
X0196563Y0079922D03*
X0196563Y0077363D03*
X0196563Y0074804D03*
X0219537Y0074804D03*
X0219537Y0077363D03*
X0219537Y0079922D03*
X0219537Y0082481D03*
X0219537Y0085040D03*
X0219537Y0087600D03*
X0219537Y0090159D03*
X0219537Y0092718D03*
X0219537Y0095277D03*
X0219537Y0097836D03*
D13*
X0121426Y0102527D03*
X0121426Y0109220D03*
X0121426Y0115913D03*
X0137174Y0115913D03*
X0137174Y0109220D03*
X0137174Y0102527D03*
X0147626Y0116027D03*
X0147626Y0122720D03*
X0147626Y0129413D03*
X0163374Y0129413D03*
X0163374Y0122720D03*
X0163374Y0116027D03*
X0174576Y0126427D03*
X0174576Y0133120D03*
X0174576Y0139813D03*
X0190324Y0139813D03*
X0190324Y0133120D03*
X0190324Y0126427D03*
X0200826Y0140127D03*
X0200826Y0146820D03*
X0200826Y0153513D03*
X0216574Y0153513D03*
X0216574Y0146820D03*
X0216574Y0140127D03*
X0227776Y0144827D03*
X0227776Y0151520D03*
X0227776Y0158213D03*
X0243524Y0158213D03*
X0243524Y0151520D03*
X0243524Y0144827D03*
X0254126Y0144927D03*
X0254126Y0151620D03*
X0254126Y0158313D03*
X0269874Y0158313D03*
X0269874Y0151620D03*
X0269874Y0144927D03*
X0281926Y0146370D03*
X0281926Y0139677D03*
X0281926Y0153063D03*
X0297674Y0153063D03*
X0297674Y0146370D03*
X0297674Y0139677D03*
X0308526Y0139513D03*
X0308526Y0132820D03*
X0308526Y0126127D03*
X0324274Y0126127D03*
X0324274Y0132820D03*
X0324274Y0139513D03*
X0334676Y0128763D03*
X0334676Y0122070D03*
X0334676Y0115377D03*
X0350424Y0115377D03*
X0350424Y0122070D03*
X0350424Y0128763D03*
X0359726Y0115263D03*
X0359726Y0108570D03*
X0359726Y0101877D03*
X0375474Y0101877D03*
X0375474Y0108570D03*
X0375474Y0115263D03*
X0294874Y0193277D03*
X0294874Y0199970D03*
X0294874Y0206663D03*
X0304076Y0205177D03*
X0304076Y0211870D03*
X0304076Y0218563D03*
X0319824Y0218563D03*
X0319824Y0211870D03*
X0319824Y0205177D03*
X0329826Y0213677D03*
X0329826Y0220370D03*
X0329826Y0227063D03*
X0345574Y0227063D03*
X0345574Y0220370D03*
X0345574Y0213677D03*
X0354976Y0215170D03*
X0354976Y0208477D03*
X0370724Y0208477D03*
X0370724Y0215170D03*
X0370724Y0221863D03*
X0354976Y0221863D03*
X0279126Y0206663D03*
X0279126Y0199970D03*
X0279126Y0193277D03*
X0269374Y0193013D03*
X0269374Y0186320D03*
X0269374Y0179627D03*
X0253626Y0179627D03*
X0253626Y0186320D03*
X0253626Y0193013D03*
X0244174Y0193163D03*
X0244174Y0186470D03*
X0244174Y0179777D03*
X0228426Y0179777D03*
X0228426Y0186470D03*
X0228426Y0193163D03*
X0219374Y0192827D03*
X0219374Y0199520D03*
X0219374Y0206213D03*
X0203626Y0206213D03*
X0203626Y0199520D03*
X0203626Y0192827D03*
X0194024Y0203977D03*
X0194024Y0210670D03*
X0194024Y0217363D03*
X0178276Y0217363D03*
X0178276Y0210670D03*
X0178276Y0203977D03*
X0168924Y0211827D03*
X0168924Y0218520D03*
X0168924Y0225213D03*
X0153176Y0225213D03*
X0153176Y0218520D03*
X0153176Y0211827D03*
X0143424Y0213970D03*
X0143424Y0220663D03*
X0143424Y0207277D03*
X0127676Y0207277D03*
X0127676Y0213970D03*
X0127676Y0220663D03*
D14*
X0169741Y0235320D03*
X0174859Y0235320D03*
X0175359Y0245320D03*
X0170241Y0245320D03*
X0169741Y0255320D03*
X0174859Y0255320D03*
X0321241Y0255820D03*
X0326359Y0255820D03*
X0326359Y0248320D03*
X0321241Y0248320D03*
X0321241Y0240320D03*
X0326359Y0240320D03*
X0285859Y0090820D03*
X0280741Y0090820D03*
X0280741Y0082320D03*
X0285859Y0082320D03*
X0285609Y0073820D03*
X0280491Y0073820D03*
X0280491Y0063820D03*
X0285609Y0063820D03*
X0285609Y0052570D03*
X0280491Y0052570D03*
X0297991Y0057570D03*
X0303109Y0057570D03*
X0175109Y0077070D03*
X0169991Y0077070D03*
D15*
X0302700Y0074120D03*
X0311800Y0074120D03*
X0320900Y0074120D03*
D16*
X0311800Y0098521D03*
D17*
X0175503Y0096279D03*
X0173534Y0096279D03*
X0171566Y0096279D03*
X0169597Y0096279D03*
X0169597Y0084861D03*
X0171566Y0084861D03*
X0173534Y0084861D03*
X0175503Y0084861D03*
D18*
X0185454Y0234320D03*
X0192146Y0234320D03*
X0192146Y0243820D03*
X0185454Y0243820D03*
X0184954Y0254820D03*
X0191646Y0254820D03*
X0298954Y0254820D03*
X0305646Y0254820D03*
X0305646Y0245320D03*
X0298954Y0245320D03*
X0298954Y0235820D03*
X0305646Y0235820D03*
M02*
