%
M48
M72
T01C0.0100
T02C0.0276
T03C0.0394
T04C0.0400
T05C0.0748
T06C0.1250
%
T01
X14030Y12332
X13474Y12988
X16530Y13832
X19030Y14832
X19730Y15732
X20630Y16732
X20930Y17232
X21263Y16332
X22030Y16232
X23730Y16732
X24530Y17032
X24430Y16232
X25830Y16332
X25430Y17232
X28130Y17932
X27930Y18732
X25730Y20032
X21930Y18732
X19330Y19732
X16730Y20432
X15230Y20432
X14480Y19732
X12768Y19232
X15230Y16732
X21030Y12132
X20330Y10632
X19130Y9532
X18030Y8732
X17630Y10232
X17530Y6932
X16930Y6932
X18730Y6332
X20430Y6932
X22630Y9032
X22930Y9532
X24930Y8132
X24330Y6032
X30430Y5132
X33030Y7432
X34230Y8232
X35930Y11932
X37330Y12232
X35230Y13632
X33130Y15132
X31830Y15032
X30530Y15032
X30530Y16332
X32830Y18932
X33330Y20532
X35130Y20132
X33330Y23432
X35030Y24032
X34030Y24832
X33130Y25832
X32730Y26732
X31230Y25632
X31030Y24732
X31430Y24532
X31230Y24132
X29130Y24347
X27030Y24432
X30430Y19932
X25230Y12732
X19930Y23232
X18030Y23632
X18030Y24932
X16630Y26732
X16830Y27032
X15530Y27632
X15530Y28192
X14730Y27832
X16420Y28762
X13130Y29232
X12830Y29332
X15474Y24032
X16024Y23532
X12430Y23532
X33830Y28232
X34830Y27532
X34930Y29332
X35830Y30532
X36530Y28832
T02
X11197Y13776
X11197Y12988
T03
X8539Y20804
X7555Y20804
X6571Y20804
X6571Y26513
X8539Y26513
X41321Y26513
X43289Y26513
X43289Y20804
X42305Y20804
X41321Y20804
T04
X22430Y4632
X21430Y4632
X20430Y4632
X19430Y4632
X18430Y4632
X17430Y4632
X10965Y16027
X10965Y17027
X10965Y18027
T05
X10153Y23757
X4957Y23757
X39707Y23757
X44903Y23757
T06
X24930Y20507
X24930Y4882
M30
