G75*
%MOIN*%
%OFA0B0*%
%FSLAX25Y25*%
%IPPOS*%
%LPD*%
%AMOC8*
5,1,8,0,0,1.08239X$1,22.5*
%
%ADD10C,0.00600*%
%ADD11R,0.05500X0.00100*%
%ADD12R,0.05400X0.00100*%
%ADD13R,0.05300X0.00100*%
%ADD14R,0.05200X0.00100*%
%ADD15R,0.05100X0.00100*%
%ADD16R,0.05000X0.00100*%
%ADD17R,0.04900X0.00100*%
%ADD18R,0.04800X0.00100*%
%ADD19R,0.04700X0.00100*%
%ADD20R,0.05900X0.00100*%
%ADD21R,0.06500X0.00100*%
%ADD22R,0.06900X0.00100*%
%ADD23R,0.07300X0.00100*%
%ADD24R,0.07600X0.00100*%
%ADD25R,0.08000X0.00100*%
%ADD26R,0.08300X0.00100*%
%ADD27R,0.08600X0.00100*%
%ADD28R,0.08900X0.00100*%
%ADD29R,0.09100X0.00100*%
%ADD30R,0.09400X0.00100*%
%ADD31R,0.09600X0.00100*%
%ADD32R,0.09900X0.00100*%
%ADD33R,0.10100X0.00100*%
%ADD34R,0.10400X0.00100*%
%ADD35R,0.10500X0.00100*%
%ADD36R,0.10800X0.00100*%
%ADD37R,0.11000X0.00100*%
%ADD38R,0.11200X0.00100*%
%ADD39R,0.11500X0.00100*%
%ADD40R,0.11700X0.00100*%
%ADD41R,0.11800X0.00100*%
%ADD42R,0.12000X0.00100*%
%ADD43R,0.12200X0.00100*%
%ADD44R,0.12500X0.00100*%
%ADD45R,0.12700X0.00100*%
%ADD46R,0.12900X0.00100*%
%ADD47R,0.13000X0.00100*%
%ADD48R,0.13200X0.00100*%
%ADD49R,0.13400X0.00100*%
%ADD50R,0.13600X0.00100*%
%ADD51R,0.13800X0.00100*%
%ADD52R,0.13900X0.00100*%
%ADD53R,0.14000X0.00100*%
%ADD54R,0.14200X0.00100*%
%ADD55R,0.14400X0.00100*%
%ADD56R,0.14600X0.00100*%
%ADD57R,0.14800X0.00100*%
%ADD58R,0.14900X0.00100*%
%ADD59R,0.15100X0.00100*%
%ADD60R,0.15300X0.00100*%
%ADD61R,0.15500X0.00100*%
%ADD62R,0.15700X0.00100*%
%ADD63R,0.15800X0.00100*%
%ADD64R,0.16000X0.00100*%
%ADD65R,0.16100X0.00100*%
%ADD66R,0.16300X0.00100*%
%ADD67R,0.16500X0.00100*%
%ADD68R,0.16700X0.00100*%
%ADD69R,0.16800X0.00100*%
%ADD70R,0.17000X0.00100*%
%ADD71R,0.17100X0.00100*%
%ADD72R,0.13100X0.00100*%
%ADD73R,0.04100X0.00100*%
%ADD74R,0.13300X0.00100*%
%ADD75R,0.13500X0.00100*%
%ADD76R,0.04000X0.00100*%
%ADD77R,0.13700X0.00100*%
%ADD78R,0.04200X0.00100*%
%ADD79R,0.04300X0.00100*%
%ADD80R,0.04400X0.00100*%
%ADD81R,0.04500X0.00100*%
%ADD82R,0.04600X0.00100*%
%ADD83R,0.14100X0.00100*%
%ADD84R,0.05600X0.00100*%
%ADD85R,0.05700X0.00100*%
%ADD86R,0.05800X0.00100*%
%ADD87R,0.06000X0.00100*%
%ADD88R,0.06200X0.00100*%
%ADD89R,0.06300X0.00100*%
%ADD90R,0.06400X0.00100*%
%ADD91R,0.06700X0.00100*%
%ADD92R,0.06800X0.00100*%
%ADD93R,0.07100X0.00100*%
%ADD94R,0.07200X0.00100*%
%ADD95R,0.07400X0.00100*%
%ADD96R,0.07500X0.00100*%
%ADD97R,0.07700X0.00100*%
%ADD98R,0.07800X0.00100*%
%ADD99R,0.08200X0.00100*%
%ADD100R,0.08500X0.00100*%
%ADD101R,0.08700X0.00100*%
%ADD102R,0.12800X0.00100*%
%ADD103R,0.12600X0.00100*%
%ADD104R,0.09300X0.00100*%
%ADD105R,0.09500X0.00100*%
%ADD106R,0.12400X0.00100*%
%ADD107R,0.09700X0.00100*%
%ADD108R,0.03300X0.00100*%
%ADD109R,0.02600X0.00100*%
%ADD110R,0.01700X0.00100*%
%ADD111R,0.09000X0.00100*%
%ADD112R,0.10000X0.00100*%
%ADD113R,0.19200X0.00100*%
%ADD114R,0.19100X0.00100*%
%ADD115R,0.19000X0.00100*%
%ADD116R,0.18900X0.00100*%
%ADD117R,0.18800X0.00100*%
%ADD118R,0.18700X0.00100*%
%ADD119R,0.18500X0.00100*%
%ADD120R,0.18400X0.00100*%
%ADD121R,0.18300X0.00100*%
%ADD122R,0.18200X0.00100*%
%ADD123R,0.18100X0.00100*%
%ADD124R,0.17900X0.00100*%
%ADD125R,0.16200X0.00100*%
%ADD126R,0.15400X0.00100*%
%ADD127R,0.00700X0.00100*%
%ADD128R,0.03400X0.00100*%
%ADD129R,0.19400X0.00100*%
%ADD130R,0.19700X0.00100*%
%ADD131R,0.19900X0.00100*%
%ADD132R,0.20100X0.00100*%
%ADD133R,0.20300X0.00100*%
%ADD134R,0.20600X0.00100*%
%ADD135R,0.20800X0.00100*%
%ADD136R,0.20900X0.00100*%
%ADD137R,0.21200X0.00100*%
%ADD138R,0.21400X0.00100*%
%ADD139R,0.21500X0.00100*%
%ADD140R,0.21800X0.00100*%
%ADD141R,0.21900X0.00100*%
%ADD142R,0.22100X0.00100*%
%ADD143R,0.22400X0.00100*%
%ADD144R,0.22500X0.00100*%
%ADD145R,0.22700X0.00100*%
%ADD146R,0.22900X0.00100*%
%ADD147R,0.23100X0.00100*%
%ADD148R,0.03200X0.00100*%
%ADD149R,0.01000X0.00100*%
%ADD150R,0.23300X0.00100*%
%ADD151R,0.03000X0.00100*%
%ADD152R,0.23400X0.00100*%
%ADD153R,0.02800X0.00100*%
%ADD154R,0.01100X0.00100*%
%ADD155R,0.26300X0.00100*%
%ADD156R,0.23600X0.00100*%
%ADD157R,0.02400X0.00100*%
%ADD158R,0.01200X0.00100*%
%ADD159R,0.23700X0.00100*%
%ADD160R,0.02100X0.00100*%
%ADD161R,0.01300X0.00100*%
%ADD162R,0.01800X0.00100*%
%ADD163R,0.01400X0.00100*%
%ADD164R,0.23800X0.00100*%
%ADD165R,0.01500X0.00100*%
%ADD166R,0.00600X0.00100*%
%ADD167R,0.00500X0.00100*%
%ADD168R,0.23900X0.00100*%
%ADD169R,0.00400X0.00100*%
%ADD170R,0.00800X0.00100*%
%ADD171R,0.00900X0.00100*%
%ADD172R,0.24000X0.00100*%
%ADD173R,0.24100X0.00100*%
%ADD174R,0.24200X0.00100*%
%ADD175R,0.00300X0.00100*%
%ADD176R,0.24300X0.00100*%
%ADD177R,0.24400X0.00100*%
%ADD178R,0.03600X0.00100*%
%ADD179R,0.17700X0.00100*%
%ADD180R,0.16600X0.00100*%
%ADD181R,0.02200X0.00100*%
%ADD182R,0.01900X0.00100*%
%ADD183R,0.01600X0.00100*%
%ADD184R,0.15000X0.00100*%
%ADD185R,0.03900X0.00100*%
%ADD186R,0.06600X0.00100*%
%ADD187R,0.02000X0.00100*%
%ADD188R,0.12300X0.00100*%
%ADD189R,0.08800X0.00100*%
%ADD190R,0.12100X0.00100*%
%ADD191R,0.11900X0.00100*%
%ADD192R,0.08400X0.00100*%
%ADD193R,0.11300X0.00100*%
%ADD194R,0.11100X0.00100*%
%ADD195R,0.02700X0.00100*%
%ADD196R,0.10700X0.00100*%
%ADD197R,0.08100X0.00100*%
%ADD198R,0.00100X0.00100*%
%ADD199R,0.00200X0.00100*%
%ADD200R,0.10300X0.00100*%
%ADD201R,0.09800X0.00100*%
%ADD202R,0.02500X0.00100*%
%ADD203R,0.17600X0.00100*%
%ADD204R,0.17400X0.00100*%
%ADD205R,0.17300X0.00100*%
%ADD206R,0.17200X0.00100*%
%ADD207R,0.16900X0.00100*%
%ADD208R,0.02900X0.00100*%
%ADD209R,0.14700X0.00100*%
%ADD210R,0.03800X0.00100*%
%ADD211R,0.03100X0.00100*%
%ADD212R,0.02300X0.00100*%
%ADD213R,0.03700X0.00100*%
%ADD214R,0.15600X0.00100*%
%ADD215R,0.19300X0.00100*%
%ADD216R,0.15200X0.00100*%
%ADD217R,0.14500X0.00100*%
%ADD218R,0.06100X0.00100*%
D10*
X0183645Y0278620D02*
X0183645Y0279688D01*
X0183645Y0281823D02*
X0183645Y0286093D01*
X0185820Y0282890D02*
X0185820Y0277552D01*
X0186887Y0276485D01*
X0187955Y0276485D01*
X0189022Y0278620D02*
X0185820Y0278620D01*
X0189022Y0278620D02*
X0190090Y0279688D01*
X0190090Y0282890D01*
X0192265Y0281823D02*
X0192265Y0278620D01*
X0192265Y0281823D02*
X0193333Y0282890D01*
X0196536Y0282890D01*
X0196536Y0278620D01*
X0198711Y0278620D02*
X0201913Y0278620D01*
X0202981Y0279688D01*
X0201913Y0280755D01*
X0198711Y0280755D01*
X0198711Y0281823D02*
X0198711Y0278620D01*
X0198711Y0281823D02*
X0199778Y0282890D01*
X0201913Y0282890D01*
X0205143Y0282890D02*
X0207278Y0282890D01*
X0206210Y0283958D02*
X0206210Y0279688D01*
X0205143Y0278620D01*
X0209440Y0278620D02*
X0210507Y0279688D01*
X0210507Y0283958D01*
X0209440Y0282890D02*
X0211575Y0282890D01*
X0214804Y0282890D02*
X0214804Y0278620D01*
X0213737Y0278620D02*
X0215872Y0278620D01*
X0215872Y0282890D02*
X0214804Y0282890D01*
X0214804Y0285025D02*
X0214804Y0286093D01*
X0218041Y0282890D02*
X0219108Y0282890D01*
X0221243Y0280755D01*
X0221243Y0278620D02*
X0221243Y0282890D01*
X0223418Y0282890D02*
X0224486Y0281823D01*
X0227689Y0281823D01*
X0227689Y0285025D02*
X0224486Y0285025D01*
X0223418Y0283958D01*
X0223418Y0282890D01*
X0224486Y0281823D02*
X0223418Y0280755D01*
X0223418Y0279688D01*
X0224486Y0278620D01*
X0227689Y0278620D01*
X0227689Y0285025D01*
X0236309Y0282890D02*
X0236309Y0277552D01*
X0237377Y0276485D01*
X0238445Y0276485D01*
X0239512Y0278620D02*
X0236309Y0278620D01*
X0239512Y0278620D02*
X0240580Y0279688D01*
X0240580Y0282890D01*
X0242755Y0281823D02*
X0242755Y0278620D01*
X0245958Y0278620D01*
X0247025Y0279688D01*
X0245958Y0280755D01*
X0242755Y0280755D01*
X0242755Y0281823D02*
X0243823Y0282890D01*
X0245958Y0282890D01*
X0249200Y0282890D02*
X0252403Y0282890D01*
X0253471Y0281823D01*
X0253471Y0279688D01*
X0252403Y0278620D01*
X0249200Y0278620D01*
X0249200Y0285025D01*
X0255646Y0281823D02*
X0255646Y0278620D01*
X0255646Y0281823D02*
X0256714Y0282890D01*
X0258849Y0282890D01*
X0259916Y0281823D01*
X0262078Y0282890D02*
X0264213Y0282890D01*
X0263146Y0283958D02*
X0263146Y0279688D01*
X0262078Y0278620D01*
X0259916Y0278620D02*
X0259916Y0285025D01*
X0266382Y0282890D02*
X0267449Y0282890D01*
X0269585Y0280755D01*
X0269585Y0278620D02*
X0269585Y0282890D01*
X0272814Y0282890D02*
X0272814Y0278620D01*
X0273882Y0278620D02*
X0271746Y0278620D01*
X0272814Y0282890D02*
X0273882Y0282890D01*
X0276057Y0282890D02*
X0277124Y0281823D01*
X0280327Y0281823D01*
X0280327Y0285025D02*
X0280327Y0278620D01*
X0277124Y0278620D01*
X0276057Y0279688D01*
X0276057Y0280755D01*
X0277124Y0281823D01*
X0276057Y0282890D02*
X0276057Y0283958D01*
X0277124Y0285025D01*
X0280327Y0285025D01*
X0272814Y0285025D02*
X0272814Y0286093D01*
X0288948Y0282890D02*
X0288948Y0277552D01*
X0290015Y0276485D01*
X0291083Y0276485D01*
X0292150Y0278620D02*
X0288948Y0278620D01*
X0292150Y0278620D02*
X0293218Y0279688D01*
X0293218Y0282890D01*
X0295393Y0281823D02*
X0295393Y0279688D01*
X0296461Y0278620D01*
X0299664Y0278620D01*
X0299664Y0276485D02*
X0299664Y0282890D01*
X0296461Y0282890D01*
X0295393Y0281823D01*
X0301839Y0281823D02*
X0301839Y0279688D01*
X0302906Y0278620D01*
X0306109Y0278620D01*
X0306109Y0276485D02*
X0306109Y0282890D01*
X0302906Y0282890D01*
X0301839Y0281823D01*
X0308284Y0281823D02*
X0308284Y0278620D01*
X0311487Y0278620D01*
X0312555Y0279688D01*
X0311487Y0280755D01*
X0308284Y0280755D01*
X0308284Y0281823D02*
X0309352Y0282890D01*
X0311487Y0282890D01*
X0314730Y0281823D02*
X0319000Y0281823D01*
X0319000Y0285025D02*
X0319000Y0278620D01*
X0314730Y0278620D02*
X0314730Y0285025D01*
D11*
X0237700Y0227620D03*
X0237800Y0227720D03*
X0237800Y0227820D03*
X0237900Y0227920D03*
X0238000Y0228020D03*
X0238100Y0228120D03*
X0247700Y0239720D03*
X0239200Y0256720D03*
X0265800Y0257220D03*
X0265900Y0257320D03*
X0266000Y0257420D03*
X0266100Y0257520D03*
X0266200Y0257620D03*
X0266300Y0257720D03*
D12*
X0265650Y0257120D03*
X0265550Y0257020D03*
X0265450Y0256920D03*
X0265350Y0256820D03*
X0265250Y0256720D03*
X0265150Y0256620D03*
X0265050Y0256520D03*
X0264950Y0256420D03*
X0264850Y0256320D03*
X0253650Y0266920D03*
X0253650Y0267020D03*
X0247650Y0239620D03*
X0240750Y0231620D03*
X0238350Y0228420D03*
X0238250Y0228320D03*
X0238150Y0228220D03*
D13*
X0238400Y0228520D03*
X0238500Y0228620D03*
X0238600Y0228720D03*
X0247600Y0239520D03*
X0264300Y0255820D03*
X0264400Y0255920D03*
X0264500Y0256020D03*
X0264600Y0256120D03*
X0264700Y0256220D03*
X0247200Y0267220D03*
X0239200Y0256820D03*
D14*
X0244150Y0258020D03*
X0244250Y0257920D03*
X0250150Y0257920D03*
X0253650Y0267120D03*
X0264250Y0255720D03*
X0264150Y0255620D03*
X0264050Y0255520D03*
X0263950Y0255420D03*
X0263850Y0255320D03*
X0247550Y0239420D03*
X0238950Y0229120D03*
X0238850Y0229020D03*
X0238750Y0228920D03*
X0238650Y0228820D03*
D15*
X0239000Y0229220D03*
X0239100Y0229320D03*
X0239200Y0229420D03*
X0247500Y0239320D03*
X0262900Y0254420D03*
X0263000Y0254520D03*
X0263100Y0254620D03*
X0263200Y0254720D03*
X0263300Y0254820D03*
X0263400Y0254920D03*
X0263500Y0255020D03*
X0263600Y0255120D03*
X0263700Y0255220D03*
X0250200Y0258020D03*
X0253600Y0267220D03*
X0240700Y0267220D03*
X0239200Y0256920D03*
D16*
X0239150Y0257020D03*
X0240750Y0267320D03*
X0253650Y0267320D03*
X0247450Y0239220D03*
X0239850Y0230220D03*
X0239750Y0230120D03*
X0239650Y0230020D03*
X0239550Y0229920D03*
X0239550Y0229820D03*
X0239450Y0229720D03*
X0239350Y0229620D03*
X0239250Y0229520D03*
D17*
X0239900Y0230320D03*
X0240000Y0230420D03*
X0240100Y0230520D03*
X0240200Y0230620D03*
X0247400Y0239120D03*
X0251900Y0251220D03*
X0240500Y0267020D03*
X0240600Y0267120D03*
D18*
X0240450Y0266920D03*
X0240750Y0267420D03*
X0240550Y0262120D03*
X0243350Y0260720D03*
X0243350Y0260620D03*
X0243350Y0260520D03*
X0243350Y0260420D03*
X0243350Y0260320D03*
X0243350Y0260220D03*
X0243350Y0260120D03*
X0243450Y0260020D03*
X0243450Y0259920D03*
X0243450Y0259820D03*
X0243450Y0259720D03*
X0243450Y0259620D03*
X0243450Y0259520D03*
X0243550Y0259320D03*
X0243550Y0259220D03*
X0243550Y0259120D03*
X0243650Y0258820D03*
X0243650Y0258720D03*
X0243750Y0258420D03*
X0243850Y0258220D03*
X0239150Y0257120D03*
X0250450Y0258120D03*
X0250750Y0258920D03*
X0250850Y0259320D03*
X0250850Y0259420D03*
X0250950Y0259920D03*
X0250950Y0260020D03*
X0250950Y0260120D03*
X0250950Y0260220D03*
X0250950Y0260320D03*
X0250950Y0260420D03*
X0250950Y0260520D03*
X0250950Y0260620D03*
X0250950Y0260720D03*
X0253650Y0267420D03*
X0247350Y0239020D03*
X0240950Y0231520D03*
X0240650Y0231120D03*
X0240550Y0231020D03*
X0240450Y0230920D03*
X0240350Y0230820D03*
X0240250Y0230720D03*
D19*
X0240700Y0231220D03*
X0240800Y0231320D03*
X0240900Y0231420D03*
X0247300Y0238920D03*
X0246100Y0245820D03*
X0243900Y0258120D03*
X0243800Y0258320D03*
X0243700Y0258520D03*
X0243700Y0258620D03*
X0243600Y0258920D03*
X0243600Y0259020D03*
X0243500Y0259420D03*
X0250500Y0258220D03*
X0250600Y0258320D03*
X0250600Y0258420D03*
X0250600Y0258520D03*
X0250700Y0258620D03*
X0250700Y0258720D03*
X0250700Y0258820D03*
X0250800Y0259020D03*
X0250800Y0259120D03*
X0250800Y0259220D03*
X0250900Y0259520D03*
X0250900Y0259620D03*
X0250900Y0259720D03*
X0250900Y0259820D03*
X0240300Y0266820D03*
X0240700Y0267520D03*
D20*
X0239200Y0256520D03*
X0251900Y0251320D03*
X0246200Y0242820D03*
X0247900Y0240120D03*
X0240500Y0231720D03*
X0267800Y0259120D03*
D21*
X0247300Y0255420D03*
X0239300Y0256220D03*
X0245800Y0243220D03*
X0248100Y0240720D03*
X0240300Y0231820D03*
D22*
X0240200Y0231920D03*
X0248200Y0241020D03*
D23*
X0251900Y0251520D03*
X0239400Y0255820D03*
X0240100Y0232020D03*
D24*
X0239950Y0232120D03*
X0247250Y0255820D03*
D25*
X0251850Y0251620D03*
X0248350Y0241720D03*
X0239850Y0232220D03*
X0233750Y0243020D03*
D26*
X0233900Y0243120D03*
X0239800Y0232320D03*
X0248400Y0241920D03*
X0250100Y0252420D03*
X0249900Y0252520D03*
X0247200Y0256120D03*
X0239600Y0255420D03*
D27*
X0239750Y0255320D03*
X0251850Y0251720D03*
X0234050Y0243220D03*
X0239750Y0232420D03*
D28*
X0239700Y0232520D03*
X0248400Y0242220D03*
D29*
X0248400Y0242320D03*
X0251600Y0251920D03*
X0251900Y0251820D03*
X0239600Y0232620D03*
D30*
X0239550Y0232720D03*
X0234450Y0243420D03*
X0239250Y0253720D03*
D31*
X0239250Y0253620D03*
X0239550Y0232820D03*
D32*
X0239500Y0232920D03*
D33*
X0239500Y0233020D03*
X0239300Y0253220D03*
D34*
X0239450Y0233120D03*
D35*
X0239400Y0233220D03*
X0239300Y0252920D03*
X0239300Y0253020D03*
D36*
X0239350Y0233320D03*
D37*
X0239350Y0233420D03*
X0239350Y0252720D03*
D38*
X0239350Y0233520D03*
D39*
X0239300Y0233620D03*
X0239400Y0252420D03*
D40*
X0239400Y0252320D03*
X0239300Y0233720D03*
D41*
X0239250Y0233820D03*
X0235650Y0242920D03*
D42*
X0235750Y0242820D03*
X0239250Y0233920D03*
D43*
X0239250Y0234020D03*
X0235850Y0242720D03*
D44*
X0236000Y0242520D03*
X0239200Y0234120D03*
D45*
X0239200Y0234220D03*
D46*
X0239200Y0234320D03*
X0236200Y0242220D03*
X0241400Y0254520D03*
D47*
X0239650Y0251720D03*
X0236550Y0245820D03*
X0236250Y0242120D03*
X0239150Y0234420D03*
X0249950Y0266820D03*
D48*
X0249850Y0266720D03*
X0236650Y0245720D03*
X0236350Y0241920D03*
X0236350Y0241820D03*
X0237350Y0237320D03*
X0237350Y0237220D03*
X0239150Y0234520D03*
D49*
X0239150Y0234620D03*
X0237350Y0237520D03*
X0236450Y0241620D03*
X0236750Y0245620D03*
D50*
X0236550Y0241320D03*
X0236650Y0241220D03*
X0236650Y0241120D03*
X0237250Y0237920D03*
X0239150Y0234720D03*
X0239750Y0251520D03*
X0249750Y0266520D03*
D51*
X0239850Y0251420D03*
X0236850Y0245520D03*
X0236750Y0240820D03*
X0236750Y0240720D03*
X0237250Y0238420D03*
X0237250Y0238320D03*
X0237250Y0238220D03*
X0239150Y0234820D03*
D52*
X0239200Y0234920D03*
X0237200Y0238520D03*
X0237200Y0238620D03*
X0237200Y0238720D03*
X0237200Y0238820D03*
X0236900Y0240320D03*
X0236800Y0240520D03*
X0236800Y0240620D03*
X0242000Y0254720D03*
X0249700Y0266320D03*
D53*
X0249650Y0266220D03*
X0236850Y0240420D03*
X0236950Y0240220D03*
X0236950Y0240120D03*
X0236950Y0240020D03*
X0236950Y0239920D03*
X0237050Y0239720D03*
X0237050Y0239620D03*
X0237050Y0239520D03*
X0237150Y0239220D03*
X0237150Y0239120D03*
X0237150Y0239020D03*
X0237150Y0238920D03*
X0239150Y0235020D03*
D54*
X0239150Y0235120D03*
X0242250Y0254820D03*
X0249550Y0266020D03*
D55*
X0249550Y0265920D03*
X0242350Y0254920D03*
X0239950Y0251220D03*
X0237150Y0245320D03*
X0239150Y0235220D03*
D56*
X0239150Y0235320D03*
X0242550Y0255020D03*
X0249450Y0265720D03*
D57*
X0249350Y0265420D03*
X0242750Y0255220D03*
X0240050Y0251120D03*
X0239150Y0235420D03*
D58*
X0239200Y0235520D03*
X0237400Y0245220D03*
X0249300Y0265320D03*
D59*
X0249300Y0265220D03*
X0249300Y0265120D03*
X0239200Y0235620D03*
D60*
X0239200Y0235720D03*
X0239200Y0235820D03*
X0245800Y0262220D03*
D61*
X0245700Y0262520D03*
X0245700Y0262620D03*
X0239200Y0235920D03*
D62*
X0239200Y0236020D03*
X0245600Y0263020D03*
X0245600Y0263120D03*
X0245500Y0263420D03*
X0245500Y0263520D03*
X0245500Y0263620D03*
X0245500Y0263720D03*
D63*
X0240350Y0250820D03*
X0239250Y0236120D03*
D64*
X0239250Y0236220D03*
D65*
X0239300Y0236320D03*
D66*
X0239300Y0236420D03*
D67*
X0239300Y0236520D03*
X0239300Y0236620D03*
D68*
X0239300Y0236720D03*
D69*
X0239350Y0236820D03*
X0243250Y0254420D03*
D70*
X0239350Y0236920D03*
D71*
X0239400Y0237020D03*
X0240800Y0250520D03*
X0243300Y0254220D03*
D72*
X0236300Y0242020D03*
X0237300Y0237120D03*
D73*
X0246000Y0237120D03*
X0246100Y0237220D03*
X0246200Y0237320D03*
X0246300Y0237420D03*
X0246400Y0237520D03*
X0246700Y0237920D03*
X0246800Y0238020D03*
X0246900Y0238120D03*
X0251300Y0242720D03*
X0251400Y0242820D03*
X0251500Y0242920D03*
X0251600Y0243020D03*
X0251700Y0243120D03*
X0251800Y0243220D03*
X0251900Y0243320D03*
X0252000Y0243420D03*
X0252100Y0243520D03*
X0252200Y0243620D03*
X0252300Y0243720D03*
X0252400Y0243820D03*
X0250300Y0257220D03*
X0244900Y0256320D03*
X0244100Y0257220D03*
X0243700Y0257820D03*
X0239200Y0257520D03*
X0239600Y0265320D03*
X0239600Y0265420D03*
X0239600Y0265520D03*
X0239700Y0265620D03*
X0239700Y0265720D03*
X0240700Y0267820D03*
X0253600Y0267820D03*
D74*
X0249800Y0266620D03*
X0239700Y0251620D03*
X0236400Y0241720D03*
X0237300Y0237420D03*
D75*
X0237300Y0237620D03*
X0237300Y0237720D03*
X0237300Y0237820D03*
X0236500Y0241420D03*
X0236500Y0241520D03*
X0241800Y0254620D03*
D76*
X0244150Y0257020D03*
X0244150Y0257120D03*
X0250250Y0257120D03*
X0250650Y0257720D03*
X0250650Y0257820D03*
X0239550Y0264920D03*
X0239550Y0265020D03*
X0239550Y0265120D03*
X0239550Y0265220D03*
X0246650Y0237820D03*
X0246550Y0237720D03*
X0246450Y0237620D03*
D77*
X0237300Y0238020D03*
X0237300Y0238120D03*
X0236700Y0240920D03*
X0236700Y0241020D03*
X0249700Y0266420D03*
D78*
X0250250Y0257320D03*
X0249450Y0256320D03*
X0244050Y0257320D03*
X0240550Y0261720D03*
X0239750Y0265820D03*
X0239750Y0265920D03*
X0254350Y0245820D03*
X0254250Y0245720D03*
X0254150Y0245620D03*
X0254050Y0245520D03*
X0253950Y0245420D03*
X0253850Y0245320D03*
X0253750Y0245220D03*
X0253650Y0245120D03*
X0253550Y0245020D03*
X0253450Y0244920D03*
X0253350Y0244820D03*
X0253250Y0244720D03*
X0253150Y0244620D03*
X0253050Y0244520D03*
X0252950Y0244420D03*
X0252850Y0244320D03*
X0252750Y0244220D03*
X0252650Y0244120D03*
X0252550Y0244020D03*
X0252450Y0243920D03*
X0246950Y0238220D03*
D79*
X0247000Y0238320D03*
X0254400Y0245920D03*
X0254500Y0246020D03*
X0254600Y0246120D03*
X0254700Y0246220D03*
X0254800Y0246320D03*
X0254900Y0246420D03*
X0255000Y0246520D03*
X0255100Y0246620D03*
X0255200Y0246720D03*
X0255300Y0246820D03*
X0255400Y0246920D03*
X0255500Y0247020D03*
X0255600Y0247120D03*
X0255700Y0247220D03*
X0255800Y0247320D03*
X0250400Y0257520D03*
X0244000Y0257520D03*
X0239200Y0257420D03*
X0240500Y0261820D03*
X0239800Y0266020D03*
X0239900Y0266120D03*
X0239900Y0266220D03*
X0240700Y0267720D03*
X0253600Y0267720D03*
D80*
X0247150Y0267320D03*
X0239950Y0266320D03*
X0256250Y0247720D03*
X0256150Y0247620D03*
X0256050Y0247520D03*
X0255950Y0247420D03*
X0247050Y0238420D03*
D81*
X0247100Y0238520D03*
X0247200Y0238720D03*
X0256300Y0247820D03*
X0239200Y0257320D03*
X0240500Y0261920D03*
X0240500Y0262020D03*
X0240000Y0266420D03*
X0240100Y0266520D03*
X0240700Y0267620D03*
X0253600Y0267620D03*
D82*
X0253650Y0267520D03*
X0250150Y0257420D03*
X0244250Y0257420D03*
X0239150Y0257220D03*
X0240150Y0266620D03*
X0240250Y0266720D03*
X0247250Y0238820D03*
X0247150Y0238620D03*
D83*
X0237100Y0239320D03*
X0237100Y0239420D03*
X0237000Y0239820D03*
X0237000Y0245420D03*
X0239900Y0251320D03*
X0249600Y0266120D03*
D84*
X0266350Y0257820D03*
X0246050Y0245920D03*
X0247750Y0239820D03*
D85*
X0247800Y0239920D03*
X0246300Y0242720D03*
X0239200Y0256620D03*
X0266500Y0257920D03*
X0266600Y0258020D03*
X0266700Y0258120D03*
X0266800Y0258220D03*
X0266900Y0258320D03*
X0267000Y0258420D03*
X0267100Y0258520D03*
D86*
X0267250Y0258620D03*
X0267350Y0258720D03*
X0267450Y0258820D03*
X0267550Y0258920D03*
X0267650Y0259020D03*
X0247850Y0240020D03*
D87*
X0247950Y0240220D03*
X0246150Y0242920D03*
X0239250Y0256420D03*
D88*
X0239250Y0256320D03*
X0247250Y0255320D03*
X0246050Y0243020D03*
X0247950Y0240320D03*
D89*
X0248000Y0240420D03*
X0248000Y0240520D03*
X0245900Y0243120D03*
D90*
X0248050Y0240620D03*
D91*
X0248100Y0240820D03*
X0239300Y0256120D03*
D92*
X0239350Y0256020D03*
X0247250Y0255520D03*
X0245650Y0243320D03*
X0248150Y0240920D03*
D93*
X0248200Y0241120D03*
X0245500Y0243420D03*
X0239400Y0255920D03*
X0247200Y0266920D03*
D94*
X0247250Y0255620D03*
X0248250Y0241220D03*
D95*
X0248250Y0241320D03*
X0247250Y0255720D03*
D96*
X0239500Y0255720D03*
X0245200Y0243520D03*
X0248300Y0241420D03*
D97*
X0248300Y0241520D03*
D98*
X0248350Y0241620D03*
X0239550Y0255620D03*
X0247250Y0255920D03*
D99*
X0248150Y0253720D03*
X0248250Y0253620D03*
X0248350Y0253520D03*
X0248750Y0253220D03*
X0249350Y0252820D03*
X0249550Y0252720D03*
X0249750Y0252620D03*
X0248350Y0241820D03*
D100*
X0248400Y0242020D03*
X0250600Y0252220D03*
X0247200Y0256220D03*
D101*
X0250900Y0252120D03*
X0248400Y0242120D03*
D102*
X0236150Y0242320D03*
X0236450Y0245920D03*
X0239650Y0251820D03*
D103*
X0239550Y0251920D03*
X0236050Y0242420D03*
D104*
X0248400Y0242420D03*
D105*
X0248400Y0242520D03*
D106*
X0235950Y0242620D03*
D107*
X0248400Y0242620D03*
X0239200Y0253520D03*
D108*
X0239600Y0243020D03*
X0255100Y0263820D03*
X0255100Y0263920D03*
D109*
X0255150Y0262720D03*
X0255150Y0262620D03*
X0255150Y0262520D03*
X0249350Y0261720D03*
X0244950Y0261720D03*
X0239350Y0258520D03*
X0255350Y0250520D03*
X0239650Y0243120D03*
D110*
X0239700Y0243220D03*
X0239600Y0259120D03*
X0239700Y0261420D03*
X0247200Y0257620D03*
X0252600Y0261720D03*
X0254800Y0261520D03*
X0253600Y0268520D03*
X0260800Y0254020D03*
X0259300Y0252420D03*
X0259200Y0252320D03*
X0259100Y0252220D03*
X0260200Y0251120D03*
X0260200Y0251020D03*
D111*
X0234250Y0243320D03*
D112*
X0234750Y0243520D03*
X0239250Y0253320D03*
D113*
X0239650Y0246020D03*
X0239350Y0243620D03*
X0247150Y0264220D03*
X0247150Y0264320D03*
D114*
X0239300Y0243820D03*
X0239300Y0243720D03*
D115*
X0239250Y0243920D03*
D116*
X0239200Y0244020D03*
X0239200Y0244120D03*
D117*
X0239150Y0244220D03*
D118*
X0239100Y0244320D03*
D119*
X0239100Y0244420D03*
D120*
X0239050Y0244520D03*
X0241350Y0250320D03*
D121*
X0239000Y0244620D03*
D122*
X0238950Y0244720D03*
D123*
X0238900Y0244820D03*
D124*
X0238800Y0244920D03*
D125*
X0237950Y0245020D03*
X0240450Y0250720D03*
D126*
X0240250Y0250920D03*
X0237650Y0245120D03*
X0245750Y0262320D03*
X0245750Y0262420D03*
D127*
X0239900Y0259820D03*
X0251100Y0254820D03*
X0257400Y0251620D03*
X0260000Y0249620D03*
X0260100Y0249720D03*
X0259200Y0248820D03*
X0259100Y0248720D03*
X0259000Y0248620D03*
X0264000Y0253420D03*
X0246600Y0245620D03*
D128*
X0246250Y0245720D03*
X0239250Y0258020D03*
X0240750Y0268120D03*
X0253650Y0268120D03*
X0255050Y0264120D03*
X0255050Y0264020D03*
D129*
X0239850Y0246120D03*
D130*
X0240000Y0246220D03*
D131*
X0240100Y0246320D03*
D132*
X0240300Y0246420D03*
D133*
X0240400Y0246520D03*
D134*
X0240550Y0246620D03*
D135*
X0240650Y0246720D03*
D136*
X0240800Y0246820D03*
D137*
X0240950Y0246920D03*
D138*
X0241050Y0247020D03*
D139*
X0241200Y0247120D03*
D140*
X0241350Y0247220D03*
D141*
X0241500Y0247320D03*
D142*
X0241600Y0247420D03*
D143*
X0241750Y0247520D03*
D144*
X0241900Y0247620D03*
D145*
X0242000Y0247720D03*
D146*
X0242200Y0247820D03*
D147*
X0242300Y0247920D03*
D148*
X0255750Y0247920D03*
X0239250Y0258120D03*
X0255150Y0263620D03*
X0255150Y0263720D03*
D149*
X0250950Y0254720D03*
X0256950Y0251320D03*
X0256350Y0248820D03*
X0258150Y0247920D03*
X0258250Y0248020D03*
X0259350Y0249120D03*
X0260250Y0250020D03*
X0264050Y0253620D03*
X0239750Y0259620D03*
D150*
X0242400Y0248020D03*
D151*
X0255050Y0250420D03*
X0255750Y0248020D03*
X0260050Y0252520D03*
X0255150Y0263420D03*
X0255150Y0263520D03*
X0240750Y0268220D03*
D152*
X0242550Y0248120D03*
D153*
X0239350Y0258420D03*
X0245050Y0261820D03*
X0249350Y0261820D03*
X0255150Y0263020D03*
X0260950Y0253520D03*
X0255750Y0248120D03*
D154*
X0258300Y0248120D03*
X0258400Y0248220D03*
X0259400Y0249220D03*
X0260300Y0250120D03*
X0260300Y0250220D03*
X0256800Y0251220D03*
X0247900Y0257820D03*
X0247200Y0257520D03*
X0246500Y0257820D03*
X0239700Y0259520D03*
D155*
X0244000Y0248220D03*
D156*
X0242750Y0248320D03*
D157*
X0251950Y0251020D03*
X0255950Y0248320D03*
X0259050Y0251820D03*
X0259950Y0252720D03*
X0255150Y0262320D03*
X0255150Y0262420D03*
X0249750Y0260820D03*
X0244950Y0261620D03*
D158*
X0239650Y0261320D03*
X0254750Y0261320D03*
X0264050Y0253720D03*
X0260350Y0250320D03*
X0259450Y0249320D03*
X0258450Y0248320D03*
X0256650Y0251120D03*
D159*
X0242900Y0248520D03*
X0242800Y0248420D03*
D160*
X0247200Y0257720D03*
X0244800Y0261020D03*
X0249400Y0261420D03*
X0252400Y0262120D03*
X0255000Y0261920D03*
X0255000Y0261820D03*
X0259900Y0252820D03*
X0259000Y0251920D03*
X0256000Y0248420D03*
X0239500Y0258820D03*
X0239700Y0261520D03*
D161*
X0239700Y0259420D03*
X0256300Y0248720D03*
X0258500Y0248420D03*
X0259500Y0249420D03*
X0260300Y0250420D03*
X0260000Y0253320D03*
X0260100Y0253420D03*
D162*
X0259850Y0252920D03*
X0259050Y0252120D03*
X0260150Y0251220D03*
X0260750Y0253920D03*
X0256150Y0248520D03*
X0252550Y0261320D03*
X0252550Y0261420D03*
X0252550Y0261520D03*
X0252550Y0261820D03*
X0252550Y0261920D03*
X0241850Y0261620D03*
X0241850Y0261520D03*
X0241850Y0261420D03*
X0241850Y0261320D03*
X0241850Y0261220D03*
X0241850Y0261120D03*
X0239550Y0259020D03*
X0240750Y0268520D03*
D163*
X0239650Y0259320D03*
X0256450Y0251020D03*
X0258550Y0248520D03*
X0259550Y0249520D03*
X0260350Y0250520D03*
X0260350Y0250620D03*
X0259950Y0253220D03*
X0264050Y0253820D03*
D164*
X0243050Y0248720D03*
X0242950Y0248620D03*
D165*
X0250800Y0254620D03*
X0256300Y0250920D03*
X0256200Y0248620D03*
X0260300Y0250720D03*
X0260300Y0250820D03*
X0259900Y0253120D03*
X0260800Y0254120D03*
X0260900Y0254220D03*
X0261000Y0254320D03*
X0239600Y0259220D03*
D166*
X0247150Y0257220D03*
X0258550Y0250420D03*
X0258150Y0248620D03*
X0261550Y0252220D03*
X0261450Y0252320D03*
X0262350Y0253220D03*
X0263950Y0253320D03*
D167*
X0262500Y0253120D03*
X0258500Y0250520D03*
X0258600Y0250320D03*
X0258700Y0250220D03*
X0258800Y0250020D03*
X0258900Y0249820D03*
X0259000Y0249620D03*
X0257900Y0249020D03*
X0257800Y0249220D03*
X0257700Y0249420D03*
X0257600Y0249520D03*
X0258000Y0248820D03*
X0258000Y0248720D03*
X0248200Y0267420D03*
X0239900Y0259920D03*
D168*
X0243300Y0249020D03*
X0243200Y0248920D03*
X0243100Y0248820D03*
D169*
X0251150Y0254920D03*
X0257650Y0251720D03*
X0258750Y0250120D03*
X0258850Y0249920D03*
X0258950Y0249720D03*
X0257850Y0249120D03*
X0257750Y0249320D03*
X0257550Y0249620D03*
X0257950Y0248920D03*
X0256450Y0248920D03*
X0261650Y0252120D03*
X0262550Y0253020D03*
X0263950Y0253220D03*
X0251250Y0261920D03*
X0243050Y0261920D03*
X0239950Y0260020D03*
D170*
X0239850Y0259720D03*
X0240750Y0268620D03*
X0246150Y0267420D03*
X0261250Y0252420D03*
X0262250Y0253320D03*
X0260150Y0249820D03*
X0259250Y0248920D03*
X0257250Y0251520D03*
D171*
X0257100Y0251420D03*
X0259300Y0249020D03*
X0260200Y0249920D03*
X0262100Y0253420D03*
X0264000Y0253520D03*
X0253600Y0268620D03*
D172*
X0243450Y0249220D03*
X0243350Y0249120D03*
D173*
X0243500Y0249320D03*
X0243600Y0249420D03*
D174*
X0243650Y0249520D03*
X0243750Y0249620D03*
X0243850Y0249720D03*
D175*
X0240000Y0260120D03*
X0251100Y0261120D03*
X0261700Y0252020D03*
X0263900Y0253120D03*
X0258400Y0250620D03*
X0257500Y0249720D03*
D176*
X0244100Y0250020D03*
X0244000Y0249920D03*
X0243900Y0249820D03*
D177*
X0244150Y0250120D03*
X0244250Y0250220D03*
D178*
X0239250Y0257820D03*
X0239250Y0257920D03*
X0249150Y0262020D03*
X0253650Y0268020D03*
X0240750Y0268020D03*
X0254650Y0250320D03*
D179*
X0241000Y0250420D03*
D180*
X0240650Y0250620D03*
D181*
X0250550Y0254520D03*
X0255650Y0250620D03*
X0260850Y0253720D03*
X0264050Y0254120D03*
X0255050Y0262020D03*
X0252350Y0260820D03*
X0249650Y0260920D03*
X0244950Y0261420D03*
X0244950Y0261520D03*
X0244750Y0260920D03*
X0242050Y0260820D03*
X0240750Y0268420D03*
D182*
X0241900Y0261020D03*
X0244900Y0261220D03*
X0249400Y0261220D03*
X0249400Y0261320D03*
X0249500Y0261120D03*
X0252500Y0261120D03*
X0252500Y0261220D03*
X0252500Y0261620D03*
X0252500Y0262020D03*
X0254900Y0261620D03*
X0260800Y0253820D03*
X0259900Y0251520D03*
X0260000Y0251420D03*
X0260100Y0251320D03*
X0259000Y0252020D03*
X0255900Y0250720D03*
X0264000Y0254020D03*
D183*
X0264050Y0253920D03*
X0259850Y0253020D03*
X0260250Y0250920D03*
X0256150Y0250820D03*
X0247150Y0257320D03*
X0254750Y0261420D03*
D184*
X0240150Y0251020D03*
D185*
X0239200Y0257620D03*
X0243700Y0257620D03*
X0243700Y0257720D03*
X0244200Y0256920D03*
X0244700Y0256420D03*
X0249700Y0256420D03*
X0249800Y0256520D03*
X0250100Y0256820D03*
X0250200Y0256920D03*
X0250200Y0257020D03*
X0251900Y0251120D03*
X0253600Y0267920D03*
X0240700Y0267920D03*
D186*
X0247150Y0267020D03*
X0251850Y0251420D03*
D187*
X0259450Y0251720D03*
X0259750Y0251620D03*
X0254950Y0261720D03*
X0252450Y0261020D03*
X0252450Y0260920D03*
X0249550Y0261020D03*
X0244950Y0261320D03*
X0244850Y0261120D03*
X0241950Y0260920D03*
X0239550Y0258920D03*
D188*
X0239500Y0252020D03*
D189*
X0251250Y0252020D03*
D190*
X0239500Y0252120D03*
D191*
X0239500Y0252220D03*
D192*
X0250350Y0252320D03*
D193*
X0239400Y0252520D03*
D194*
X0239400Y0252620D03*
D195*
X0255200Y0262820D03*
X0255200Y0262920D03*
X0253600Y0268320D03*
X0240700Y0268320D03*
X0260000Y0252620D03*
D196*
X0239300Y0252820D03*
D197*
X0239600Y0255520D03*
X0247200Y0256020D03*
X0248500Y0253420D03*
X0248600Y0253320D03*
X0248900Y0253120D03*
X0249000Y0253020D03*
X0249200Y0252920D03*
X0247200Y0262120D03*
D198*
X0250900Y0261820D03*
X0250900Y0261320D03*
X0251300Y0261220D03*
X0251600Y0261720D03*
X0251500Y0261820D03*
X0247700Y0258120D03*
X0246700Y0258120D03*
X0243500Y0261320D03*
X0243500Y0261420D03*
X0243400Y0261820D03*
X0242800Y0261720D03*
X0243200Y0261120D03*
X0262600Y0252920D03*
X0270700Y0259220D03*
D199*
X0263850Y0253020D03*
X0251250Y0255020D03*
X0242850Y0261820D03*
X0240050Y0260220D03*
D200*
X0239300Y0253120D03*
D201*
X0239250Y0253420D03*
D202*
X0239400Y0258620D03*
X0260900Y0253620D03*
X0264000Y0254220D03*
D203*
X0243350Y0253820D03*
D204*
X0243350Y0253920D03*
D205*
X0243300Y0254020D03*
D206*
X0243350Y0254120D03*
D207*
X0243300Y0254320D03*
D208*
X0239300Y0258320D03*
X0255200Y0263120D03*
X0255200Y0263220D03*
X0255200Y0263320D03*
X0263900Y0254320D03*
D209*
X0249400Y0265520D03*
X0249400Y0265620D03*
X0242700Y0255120D03*
D210*
X0244350Y0256720D03*
X0244250Y0256820D03*
X0244450Y0256620D03*
X0244550Y0256520D03*
X0249950Y0256620D03*
X0250050Y0256720D03*
X0250650Y0257620D03*
X0239250Y0257720D03*
D211*
X0239300Y0258220D03*
X0245100Y0261920D03*
X0249300Y0261920D03*
X0253600Y0268220D03*
D212*
X0253600Y0268420D03*
X0255100Y0262220D03*
X0255100Y0262120D03*
X0249400Y0261620D03*
X0249400Y0261520D03*
X0244600Y0260820D03*
X0239700Y0261620D03*
X0239400Y0258720D03*
D213*
X0245200Y0262020D03*
D214*
X0245650Y0262720D03*
X0245650Y0262820D03*
X0245650Y0262920D03*
X0245550Y0263220D03*
X0245550Y0263320D03*
X0245450Y0263820D03*
X0245450Y0263920D03*
X0245450Y0264020D03*
X0245350Y0264120D03*
D215*
X0247200Y0264420D03*
X0247200Y0264520D03*
X0247200Y0264620D03*
X0247200Y0264720D03*
X0247200Y0264820D03*
D216*
X0249250Y0264920D03*
X0249250Y0265020D03*
D217*
X0249500Y0265820D03*
D218*
X0247200Y0267120D03*
M02*
